<mxfile host="Electron" modified="2024-05-12T15:49:52.242Z" agent="Mozilla/5.0 (Windows NT 10.0; Win64; x64) AppleWebKit/537.36 (KHTML, like Gecko) draw.io/22.1.2 Chrome/114.0.5735.289 Electron/25.9.4 Safari/537.36" etag="99g-qk5jV1CJLRzdXqMg" version="22.1.2" type="device">
  <diagram name="第 1 页" id="7oMCcfue97lB2IO2_yBv">
    <mxGraphModel dx="576" dy="401" grid="1" gridSize="10" guides="1" tooltips="1" connect="1" arrows="1" fold="1" page="1" pageScale="1" pageWidth="100000" pageHeight="100000" math="0" shadow="0">
      <root>
        <mxCell id="0" />
        <mxCell id="1" parent="0" />
        <mxCell id="wn1u9aZSYSZ8bPjQJcBS-20" value="" style="whiteSpace=wrap;html=1;sketch=1;curveFitting=1;jiggle=2;fontFamily=Comic Sans MS;" vertex="1" parent="1">
          <mxGeometry x="1480" y="3640" width="260" height="180" as="geometry" />
        </mxCell>
        <mxCell id="zupbCZH1lNRX8spcNWEF-51" value="" style="rounded=0;whiteSpace=wrap;html=1;sketch=1;curveFitting=1;jiggle=2;fontFamily=Comic Sans MS;fontColor=#000000;" parent="1" vertex="1">
          <mxGeometry x="1650" y="1630" width="940" height="530" as="geometry" />
        </mxCell>
        <mxCell id="Su5WRMt0bHYKvWhULNg3-113" value="6F0000" style="rounded=0;whiteSpace=wrap;html=1;sketch=1;curveFitting=1;jiggle=2;fontFamily=Comic Sans MS;" parent="1" vertex="1">
          <mxGeometry x="1380" y="300" width="980" height="550" as="geometry" />
        </mxCell>
        <mxCell id="Su5WRMt0bHYKvWhULNg3-140" value="" style="rounded=0;whiteSpace=wrap;html=1;sketch=1;curveFitting=1;jiggle=2;fontFamily=Comic Sans MS;" parent="1" vertex="1">
          <mxGeometry x="1670" y="930" width="770" height="530" as="geometry" />
        </mxCell>
        <mxCell id="Su5WRMt0bHYKvWhULNg3-4" style="edgeStyle=orthogonalEdgeStyle;rounded=0;orthogonalLoop=1;jettySize=auto;html=1;exitX=0.5;exitY=1;exitDx=0;exitDy=0;entryX=0.5;entryY=0;entryDx=0;entryDy=0;startArrow=none;startFill=0;sketch=1;curveFitting=1;jiggle=2;endArrow=open;endFill=0;fontFamily=Comic Sans MS;fontStyle=1;fontSize=12;" parent="1" source="Su5WRMt0bHYKvWhULNg3-2" target="Su5WRMt0bHYKvWhULNg3-3" edge="1">
          <mxGeometry relative="1" as="geometry" />
        </mxCell>
        <mxCell id="Su5WRMt0bHYKvWhULNg3-129" value="封装" style="edgeLabel;html=1;align=center;verticalAlign=middle;resizable=0;points=[];fontFamily=Comic Sans MS;" parent="Su5WRMt0bHYKvWhULNg3-4" vertex="1" connectable="0">
          <mxGeometry x="-0.0285" y="2" relative="1" as="geometry">
            <mxPoint x="-2" as="offset" />
          </mxGeometry>
        </mxCell>
        <mxCell id="Su5WRMt0bHYKvWhULNg3-16" style="edgeStyle=orthogonalEdgeStyle;rounded=0;orthogonalLoop=1;jettySize=auto;html=1;entryX=0;entryY=0.5;entryDx=0;entryDy=0;startArrow=open;startFill=0;endArrow=open;endFill=0;sketch=1;curveFitting=1;jiggle=2;dashed=1;dashPattern=8 8;fontStyle=1;fontSize=12;exitX=1;exitY=0.5;exitDx=0;exitDy=0;" parent="1" source="Su5WRMt0bHYKvWhULNg3-2" target="Su5WRMt0bHYKvWhULNg3-10" edge="1">
          <mxGeometry relative="1" as="geometry">
            <mxPoint x="1770" y="380" as="sourcePoint" />
          </mxGeometry>
        </mxCell>
        <mxCell id="Su5WRMt0bHYKvWhULNg3-20" value="HTTP协议&lt;br&gt;（逻辑上请求和响应在这里被传输）" style="edgeLabel;html=1;align=center;verticalAlign=middle;resizable=0;points=[];fontFamily=Comic Sans MS;fontStyle=1;fontSize=12;" parent="Su5WRMt0bHYKvWhULNg3-16" vertex="1" connectable="0">
          <mxGeometry x="0.0463" y="1" relative="1" as="geometry">
            <mxPoint x="-4" y="1" as="offset" />
          </mxGeometry>
        </mxCell>
        <mxCell id="Su5WRMt0bHYKvWhULNg3-2" value="HTTP客户端" style="rounded=0;whiteSpace=wrap;html=1;sketch=1;curveFitting=1;jiggle=2;fontFamily=Comic Sans MS;fontStyle=1;fontSize=12;" parent="1" vertex="1">
          <mxGeometry x="1645" y="360" width="80" height="40" as="geometry" />
        </mxCell>
        <mxCell id="Su5WRMt0bHYKvWhULNg3-17" style="edgeStyle=orthogonalEdgeStyle;rounded=0;orthogonalLoop=1;jettySize=auto;html=1;exitX=1;exitY=0.5;exitDx=0;exitDy=0;entryX=0;entryY=0.5;entryDx=0;entryDy=0;startArrow=open;startFill=0;endArrow=open;endFill=0;sketch=1;curveFitting=1;jiggle=2;dashed=1;dashPattern=8 8;fontStyle=1;fontSize=12;" parent="1" source="Su5WRMt0bHYKvWhULNg3-3" target="Su5WRMt0bHYKvWhULNg3-12" edge="1">
          <mxGeometry relative="1" as="geometry">
            <mxPoint x="1775" y="500" as="sourcePoint" />
          </mxGeometry>
        </mxCell>
        <mxCell id="Su5WRMt0bHYKvWhULNg3-21" value="TCP协议&lt;br&gt;（逻辑上数据段在这里被传输）" style="edgeLabel;html=1;align=center;verticalAlign=middle;resizable=0;points=[];fontFamily=Comic Sans MS;fontStyle=1;fontSize=12;" parent="Su5WRMt0bHYKvWhULNg3-17" vertex="1" connectable="0">
          <mxGeometry x="-0.037" y="6" relative="1" as="geometry">
            <mxPoint x="4" y="6" as="offset" />
          </mxGeometry>
        </mxCell>
        <mxCell id="Su5WRMt0bHYKvWhULNg3-3" value="TCP" style="rounded=0;whiteSpace=wrap;html=1;sketch=1;curveFitting=1;jiggle=2;fontFamily=Comic Sans MS;fontStyle=1;fontSize=12;" parent="1" vertex="1">
          <mxGeometry x="1644" y="480" width="86" height="40" as="geometry" />
        </mxCell>
        <mxCell id="Su5WRMt0bHYKvWhULNg3-18" style="edgeStyle=orthogonalEdgeStyle;rounded=0;orthogonalLoop=1;jettySize=auto;html=1;entryX=0;entryY=0.5;entryDx=0;entryDy=0;startArrow=open;startFill=0;endArrow=open;endFill=0;sketch=1;curveFitting=1;jiggle=2;dashed=1;dashPattern=8 8;fontStyle=1;fontSize=12;exitX=1;exitY=0.5;exitDx=0;exitDy=0;" parent="1" source="Su5WRMt0bHYKvWhULNg3-5" target="Su5WRMt0bHYKvWhULNg3-14" edge="1">
          <mxGeometry relative="1" as="geometry">
            <mxPoint x="1770" y="620" as="sourcePoint" />
            <mxPoint x="1965" y="574.88" as="targetPoint" />
          </mxGeometry>
        </mxCell>
        <mxCell id="Su5WRMt0bHYKvWhULNg3-22" value="IP协议&lt;br&gt;（逻辑上数据报在这里被传输）" style="edgeLabel;html=1;align=center;verticalAlign=middle;resizable=0;points=[];fontFamily=Comic Sans MS;fontStyle=1;fontSize=12;" parent="Su5WRMt0bHYKvWhULNg3-18" vertex="1" connectable="0">
          <mxGeometry x="-0.0093" y="-1" relative="1" as="geometry">
            <mxPoint x="1" y="-1" as="offset" />
          </mxGeometry>
        </mxCell>
        <mxCell id="Su5WRMt0bHYKvWhULNg3-5" value="IP" style="rounded=0;whiteSpace=wrap;html=1;sketch=1;curveFitting=1;jiggle=2;fontFamily=Comic Sans MS;fontStyle=1;fontSize=12;" parent="1" vertex="1">
          <mxGeometry x="1644" y="600" width="86" height="40" as="geometry" />
        </mxCell>
        <mxCell id="Su5WRMt0bHYKvWhULNg3-19" style="edgeStyle=orthogonalEdgeStyle;rounded=0;orthogonalLoop=1;jettySize=auto;html=1;exitX=1;exitY=0.5;exitDx=0;exitDy=0;entryX=0;entryY=0.5;entryDx=0;entryDy=0;startArrow=open;startFill=0;endArrow=open;endFill=0;sketch=1;curveFitting=1;jiggle=2;dashed=1;dashPattern=8 8;fontStyle=1;fontSize=12;" parent="1" source="Su5WRMt0bHYKvWhULNg3-7" target="Su5WRMt0bHYKvWhULNg3-15" edge="1">
          <mxGeometry relative="1" as="geometry">
            <mxPoint x="1775" y="740.0000000000002" as="sourcePoint" />
          </mxGeometry>
        </mxCell>
        <mxCell id="Su5WRMt0bHYKvWhULNg3-23" value="以太网协议&lt;br&gt;（逻辑上数据帧在这里被传输）" style="edgeLabel;html=1;align=center;verticalAlign=middle;resizable=0;points=[];fontFamily=Comic Sans MS;fontStyle=1;fontSize=12;" parent="Su5WRMt0bHYKvWhULNg3-19" vertex="1" connectable="0">
          <mxGeometry x="-0.0231" y="3" relative="1" as="geometry">
            <mxPoint x="3" y="3" as="offset" />
          </mxGeometry>
        </mxCell>
        <mxCell id="Su5WRMt0bHYKvWhULNg3-24" style="edgeStyle=orthogonalEdgeStyle;rounded=0;orthogonalLoop=1;jettySize=auto;html=1;exitX=0.5;exitY=1;exitDx=0;exitDy=0;endArrow=none;endFill=0;sketch=1;curveFitting=1;jiggle=2;dashed=1;fontStyle=1;fontSize=12;" parent="1" source="Su5WRMt0bHYKvWhULNg3-7" edge="1">
          <mxGeometry relative="1" as="geometry">
            <mxPoint x="1680" y="800" as="targetPoint" />
          </mxGeometry>
        </mxCell>
        <mxCell id="Su5WRMt0bHYKvWhULNg3-7" value="以太网驱动程序" style="rounded=0;whiteSpace=wrap;html=1;sketch=1;curveFitting=1;jiggle=2;fontFamily=Comic Sans MS;fontStyle=1;fontSize=12;" parent="1" vertex="1">
          <mxGeometry x="1646" y="720" width="84" height="40" as="geometry" />
        </mxCell>
        <mxCell id="Su5WRMt0bHYKvWhULNg3-9" style="edgeStyle=orthogonalEdgeStyle;rounded=0;orthogonalLoop=1;jettySize=auto;html=1;exitX=0.5;exitY=1;exitDx=0;exitDy=0;entryX=0.5;entryY=0;entryDx=0;entryDy=0;startArrow=open;startFill=0;sketch=1;curveFitting=1;jiggle=2;endArrow=none;endFill=0;fontFamily=Comic Sans MS;fontStyle=1;fontSize=12;" parent="1" source="Su5WRMt0bHYKvWhULNg3-10" target="Su5WRMt0bHYKvWhULNg3-12" edge="1">
          <mxGeometry relative="1" as="geometry" />
        </mxCell>
        <mxCell id="Su5WRMt0bHYKvWhULNg3-134" value="分离" style="edgeLabel;html=1;align=center;verticalAlign=middle;resizable=0;points=[];" parent="Su5WRMt0bHYKvWhULNg3-9" vertex="1" connectable="0">
          <mxGeometry x="-0.0768" y="-1" relative="1" as="geometry">
            <mxPoint y="3" as="offset" />
          </mxGeometry>
        </mxCell>
        <mxCell id="Su5WRMt0bHYKvWhULNg3-10" value="HTTP服务端" style="rounded=0;whiteSpace=wrap;html=1;sketch=1;curveFitting=1;jiggle=2;fontFamily=Comic Sans MS;fontStyle=1;fontSize=12;" parent="1" vertex="1">
          <mxGeometry x="1975" y="360" width="90" height="40" as="geometry" />
        </mxCell>
        <mxCell id="Su5WRMt0bHYKvWhULNg3-12" value="TCP" style="rounded=0;whiteSpace=wrap;html=1;sketch=1;curveFitting=1;jiggle=2;fontFamily=Comic Sans MS;fontStyle=1;fontSize=12;" parent="1" vertex="1">
          <mxGeometry x="1975" y="480" width="90" height="40" as="geometry" />
        </mxCell>
        <mxCell id="Su5WRMt0bHYKvWhULNg3-14" value="IP" style="rounded=0;whiteSpace=wrap;html=1;sketch=1;curveFitting=1;jiggle=2;fontFamily=Comic Sans MS;fontStyle=1;fontSize=12;" parent="1" vertex="1">
          <mxGeometry x="1978" y="600" width="87" height="40" as="geometry" />
        </mxCell>
        <mxCell id="Su5WRMt0bHYKvWhULNg3-25" style="edgeStyle=orthogonalEdgeStyle;rounded=0;orthogonalLoop=1;jettySize=auto;html=1;exitX=0.5;exitY=1;exitDx=0;exitDy=0;endArrow=none;endFill=0;sketch=1;curveFitting=1;jiggle=2;dashed=1;fontStyle=1;fontSize=12;" parent="1" source="Su5WRMt0bHYKvWhULNg3-15" edge="1">
          <mxGeometry relative="1" as="geometry">
            <mxPoint x="2015" y="800.0000000000002" as="targetPoint" />
          </mxGeometry>
        </mxCell>
        <mxCell id="Su5WRMt0bHYKvWhULNg3-15" value="以太网驱动程序" style="rounded=0;whiteSpace=wrap;html=1;sketch=1;curveFitting=1;jiggle=2;fontFamily=Comic Sans MS;fontStyle=1;fontSize=12;" parent="1" vertex="1">
          <mxGeometry x="1975" y="720" width="90" height="40" as="geometry" />
        </mxCell>
        <mxCell id="Su5WRMt0bHYKvWhULNg3-26" value="" style="endArrow=none;html=1;rounded=0;sketch=1;curveFitting=1;jiggle=2;fontStyle=1;fontSize=12;entryX=0.745;entryY=0.909;entryDx=0;entryDy=0;entryPerimeter=0;" parent="1" target="Su5WRMt0bHYKvWhULNg3-113" edge="1">
          <mxGeometry width="50" height="50" relative="1" as="geometry">
            <mxPoint x="1600" y="800" as="sourcePoint" />
            <mxPoint x="2040" y="800" as="targetPoint" />
          </mxGeometry>
        </mxCell>
        <mxCell id="Su5WRMt0bHYKvWhULNg3-27" value="以太网" style="edgeLabel;html=1;align=center;verticalAlign=middle;resizable=0;points=[];fontFamily=Comic Sans MS;fontStyle=1;fontSize=12;" parent="Su5WRMt0bHYKvWhULNg3-26" vertex="1" connectable="0">
          <mxGeometry x="0.0644" y="-3" relative="1" as="geometry">
            <mxPoint x="-17" y="-4" as="offset" />
          </mxGeometry>
        </mxCell>
        <mxCell id="Su5WRMt0bHYKvWhULNg3-28" value="" style="endArrow=none;html=1;rounded=0;sketch=1;curveFitting=1;jiggle=2;fontStyle=1;fontSize=12;fontColor=#FF0000;strokeColor=#FF0000;" parent="1" edge="1">
          <mxGeometry width="50" height="50" relative="1" as="geometry">
            <mxPoint x="2215.25" y="440" as="sourcePoint" />
            <mxPoint x="2335.25" y="440" as="targetPoint" />
          </mxGeometry>
        </mxCell>
        <mxCell id="Su5WRMt0bHYKvWhULNg3-30" style="edgeStyle=orthogonalEdgeStyle;rounded=0;orthogonalLoop=1;jettySize=auto;html=1;exitX=0.5;exitY=1;exitDx=0;exitDy=0;entryX=0.5;entryY=0;entryDx=0;entryDy=0;startArrow=open;startFill=0;sketch=1;curveFitting=1;jiggle=2;endArrow=open;endFill=0;fontFamily=Comic Sans MS;fontStyle=1;fontSize=12;fontColor=#FF0000;strokeColor=#FF0000;" parent="1" edge="1">
          <mxGeometry relative="1" as="geometry">
            <mxPoint x="2275.25" y="400" as="sourcePoint" />
            <mxPoint x="2275.25" y="480" as="targetPoint" />
          </mxGeometry>
        </mxCell>
        <mxCell id="Su5WRMt0bHYKvWhULNg3-32" value="&lt;font face=&quot;Comic Sans MS&quot; style=&quot;font-size: 12px;&quot;&gt;用户层（应用程序细节）&lt;/font&gt;" style="text;html=1;align=center;verticalAlign=middle;resizable=0;points=[];autosize=1;strokeColor=none;fillColor=none;fontStyle=1;fontSize=12;fontColor=#FF0000;" parent="1" vertex="1">
          <mxGeometry x="2205.25" y="365" width="160" height="30" as="geometry" />
        </mxCell>
        <mxCell id="Su5WRMt0bHYKvWhULNg3-33" value="&lt;font face=&quot;Comic Sans MS&quot; style=&quot;font-size: 12px;&quot;&gt;内核层（网络通信细节）&lt;/font&gt;" style="text;html=1;align=center;verticalAlign=middle;resizable=0;points=[];autosize=1;strokeColor=none;fillColor=none;fontStyle=1;fontSize=12;fontColor=#FF0000;" parent="1" vertex="1">
          <mxGeometry x="2205.25" y="480" width="160" height="30" as="geometry" />
        </mxCell>
        <mxCell id="Su5WRMt0bHYKvWhULNg3-49" value="" style="rounded=0;whiteSpace=wrap;html=1;sketch=1;curveFitting=1;jiggle=2;fontFamily=Comic Sans MS;fillColor=none;fontColor=#ffffff;strokeColor=#6F0000;dashed=1;dashPattern=8 8;" parent="1" vertex="1">
          <mxGeometry x="1865" y="1190" width="230" height="200" as="geometry" />
        </mxCell>
        <mxCell id="Su5WRMt0bHYKvWhULNg3-50" style="edgeStyle=orthogonalEdgeStyle;rounded=0;orthogonalLoop=1;jettySize=auto;html=1;exitX=0.5;exitY=1;exitDx=0;exitDy=0;entryX=0.5;entryY=0;entryDx=0;entryDy=0;startArrow=open;startFill=0;sketch=1;curveFitting=1;jiggle=2;endArrow=open;endFill=0;fontFamily=Comic Sans MS;" parent="1" source="Su5WRMt0bHYKvWhULNg3-53" target="Su5WRMt0bHYKvWhULNg3-57" edge="1">
          <mxGeometry relative="1" as="geometry" />
        </mxCell>
        <mxCell id="Su5WRMt0bHYKvWhULNg3-51" style="edgeStyle=orthogonalEdgeStyle;rounded=0;orthogonalLoop=1;jettySize=auto;html=1;exitX=1;exitY=0.5;exitDx=0;exitDy=0;entryX=0;entryY=0.5;entryDx=0;entryDy=0;startArrow=open;startFill=0;endArrow=open;endFill=0;sketch=1;curveFitting=1;jiggle=2;dashed=1;dashPattern=8 8;" parent="1" source="Su5WRMt0bHYKvWhULNg3-53" target="Su5WRMt0bHYKvWhULNg3-65" edge="1">
          <mxGeometry relative="1" as="geometry" />
        </mxCell>
        <mxCell id="Su5WRMt0bHYKvWhULNg3-52" value="HTTP协议" style="edgeLabel;html=1;align=center;verticalAlign=middle;resizable=0;points=[];fontFamily=Comic Sans MS;" parent="Su5WRMt0bHYKvWhULNg3-51" vertex="1" connectable="0">
          <mxGeometry x="0.0463" y="1" relative="1" as="geometry">
            <mxPoint x="-4" y="1" as="offset" />
          </mxGeometry>
        </mxCell>
        <mxCell id="Su5WRMt0bHYKvWhULNg3-53" value="HTTP客户端" style="rounded=0;whiteSpace=wrap;html=1;sketch=1;curveFitting=1;jiggle=2;fontFamily=Comic Sans MS;" parent="1" vertex="1">
          <mxGeometry x="1730" y="970" width="100" height="40" as="geometry" />
        </mxCell>
        <mxCell id="Su5WRMt0bHYKvWhULNg3-54" style="edgeStyle=orthogonalEdgeStyle;rounded=0;orthogonalLoop=1;jettySize=auto;html=1;exitX=0.5;exitY=1;exitDx=0;exitDy=0;entryX=0.5;entryY=0;entryDx=0;entryDy=0;startArrow=open;startFill=0;sketch=1;curveFitting=1;jiggle=2;endArrow=open;endFill=0;fontFamily=Comic Sans MS;" parent="1" source="Su5WRMt0bHYKvWhULNg3-57" target="Su5WRMt0bHYKvWhULNg3-61" edge="1">
          <mxGeometry relative="1" as="geometry" />
        </mxCell>
        <mxCell id="Su5WRMt0bHYKvWhULNg3-55" style="edgeStyle=orthogonalEdgeStyle;rounded=0;orthogonalLoop=1;jettySize=auto;html=1;exitX=1;exitY=0.5;exitDx=0;exitDy=0;entryX=0;entryY=0.5;entryDx=0;entryDy=0;startArrow=open;startFill=0;endArrow=open;endFill=0;sketch=1;curveFitting=1;jiggle=2;dashed=1;dashPattern=8 8;" parent="1" source="Su5WRMt0bHYKvWhULNg3-57" target="Su5WRMt0bHYKvWhULNg3-67" edge="1">
          <mxGeometry relative="1" as="geometry" />
        </mxCell>
        <mxCell id="Su5WRMt0bHYKvWhULNg3-56" value="TCP协议" style="edgeLabel;html=1;align=center;verticalAlign=middle;resizable=0;points=[];fontFamily=Comic Sans MS;" parent="Su5WRMt0bHYKvWhULNg3-55" vertex="1" connectable="0">
          <mxGeometry x="-0.037" y="6" relative="1" as="geometry">
            <mxPoint x="4" y="6" as="offset" />
          </mxGeometry>
        </mxCell>
        <mxCell id="Su5WRMt0bHYKvWhULNg3-57" value="TCP" style="rounded=0;whiteSpace=wrap;html=1;sketch=1;curveFitting=1;jiggle=2;fontFamily=Comic Sans MS;" parent="1" vertex="1">
          <mxGeometry x="1730" y="1090" width="100" height="40" as="geometry" />
        </mxCell>
        <mxCell id="Su5WRMt0bHYKvWhULNg3-58" style="edgeStyle=orthogonalEdgeStyle;rounded=0;orthogonalLoop=1;jettySize=auto;html=1;exitX=0.5;exitY=1;exitDx=0;exitDy=0;entryX=0.5;entryY=0;entryDx=0;entryDy=0;startArrow=open;startFill=0;sketch=1;curveFitting=1;jiggle=2;endArrow=open;endFill=0;fontFamily=Comic Sans MS;" parent="1" source="Su5WRMt0bHYKvWhULNg3-61" target="Su5WRMt0bHYKvWhULNg3-63" edge="1">
          <mxGeometry relative="1" as="geometry" />
        </mxCell>
        <mxCell id="Su5WRMt0bHYKvWhULNg3-59" style="edgeStyle=orthogonalEdgeStyle;rounded=0;orthogonalLoop=1;jettySize=auto;html=1;exitX=1;exitY=0.5;exitDx=0;exitDy=0;startArrow=open;startFill=0;endArrow=open;endFill=0;sketch=1;curveFitting=1;jiggle=2;dashed=1;dashPattern=8 8;entryX=0;entryY=0.5;entryDx=0;entryDy=0;" parent="1" source="Su5WRMt0bHYKvWhULNg3-61" target="Su5WRMt0bHYKvWhULNg3-80" edge="1">
          <mxGeometry relative="1" as="geometry">
            <mxPoint x="1900" y="1280" as="targetPoint" />
          </mxGeometry>
        </mxCell>
        <mxCell id="Su5WRMt0bHYKvWhULNg3-60" value="IP协议" style="edgeLabel;html=1;align=center;verticalAlign=middle;resizable=0;points=[];fontFamily=Comic Sans MS;" parent="Su5WRMt0bHYKvWhULNg3-59" vertex="1" connectable="0">
          <mxGeometry x="-0.0093" y="-1" relative="1" as="geometry">
            <mxPoint y="-1" as="offset" />
          </mxGeometry>
        </mxCell>
        <mxCell id="Su5WRMt0bHYKvWhULNg3-61" value="IP&lt;br&gt;封装源IP和目的IP" style="rounded=0;whiteSpace=wrap;html=1;sketch=1;curveFitting=1;jiggle=2;fontFamily=Comic Sans MS;" parent="1" vertex="1">
          <mxGeometry x="1730" y="1210" width="100" height="40" as="geometry" />
        </mxCell>
        <mxCell id="Su5WRMt0bHYKvWhULNg3-62" style="edgeStyle=orthogonalEdgeStyle;rounded=0;orthogonalLoop=1;jettySize=auto;html=1;exitX=0.5;exitY=1;exitDx=0;exitDy=0;endArrow=none;endFill=0;sketch=1;curveFitting=1;jiggle=2;dashed=1;" parent="1" source="Su5WRMt0bHYKvWhULNg3-63" edge="1">
          <mxGeometry relative="1" as="geometry">
            <mxPoint x="1775" y="1412" as="targetPoint" />
          </mxGeometry>
        </mxCell>
        <mxCell id="Su5WRMt0bHYKvWhULNg3-63" value="以太网驱动程序&lt;br&gt;含Mac地址" style="rounded=0;whiteSpace=wrap;html=1;sketch=1;curveFitting=1;jiggle=2;fontFamily=Comic Sans MS;" parent="1" vertex="1">
          <mxGeometry x="1732.5" y="1310" width="95" height="60" as="geometry" />
        </mxCell>
        <mxCell id="Su5WRMt0bHYKvWhULNg3-64" style="edgeStyle=orthogonalEdgeStyle;rounded=0;orthogonalLoop=1;jettySize=auto;html=1;exitX=0.5;exitY=1;exitDx=0;exitDy=0;entryX=0.5;entryY=0;entryDx=0;entryDy=0;startArrow=open;startFill=0;sketch=1;curveFitting=1;jiggle=2;endArrow=open;endFill=0;fontFamily=Comic Sans MS;" parent="1" source="Su5WRMt0bHYKvWhULNg3-65" target="Su5WRMt0bHYKvWhULNg3-67" edge="1">
          <mxGeometry relative="1" as="geometry" />
        </mxCell>
        <mxCell id="Su5WRMt0bHYKvWhULNg3-65" value="HTTP服务端" style="rounded=0;whiteSpace=wrap;html=1;sketch=1;curveFitting=1;jiggle=2;fontFamily=Comic Sans MS;" parent="1" vertex="1">
          <mxGeometry x="2145.25" y="970" width="100" height="40" as="geometry" />
        </mxCell>
        <mxCell id="Su5WRMt0bHYKvWhULNg3-66" style="edgeStyle=orthogonalEdgeStyle;rounded=0;orthogonalLoop=1;jettySize=auto;html=1;exitX=0.5;exitY=1;exitDx=0;exitDy=0;entryX=0.5;entryY=0;entryDx=0;entryDy=0;startArrow=open;startFill=0;sketch=1;curveFitting=1;jiggle=2;endArrow=open;endFill=0;fontFamily=Comic Sans MS;" parent="1" source="Su5WRMt0bHYKvWhULNg3-67" target="Su5WRMt0bHYKvWhULNg3-69" edge="1">
          <mxGeometry relative="1" as="geometry" />
        </mxCell>
        <mxCell id="Su5WRMt0bHYKvWhULNg3-67" value="TCP" style="rounded=0;whiteSpace=wrap;html=1;sketch=1;curveFitting=1;jiggle=2;fontFamily=Comic Sans MS;" parent="1" vertex="1">
          <mxGeometry x="2145.25" y="1090" width="100" height="40" as="geometry" />
        </mxCell>
        <mxCell id="Su5WRMt0bHYKvWhULNg3-68" style="edgeStyle=orthogonalEdgeStyle;rounded=0;orthogonalLoop=1;jettySize=auto;html=1;exitX=0.5;exitY=1;exitDx=0;exitDy=0;entryX=0.5;entryY=0;entryDx=0;entryDy=0;startArrow=open;startFill=0;sketch=1;curveFitting=1;jiggle=2;endArrow=open;endFill=0;fontFamily=Comic Sans MS;" parent="1" source="Su5WRMt0bHYKvWhULNg3-69" target="Su5WRMt0bHYKvWhULNg3-71" edge="1">
          <mxGeometry relative="1" as="geometry" />
        </mxCell>
        <mxCell id="Su5WRMt0bHYKvWhULNg3-69" value="IP&lt;br&gt;接受对端发的两IP" style="rounded=0;whiteSpace=wrap;html=1;sketch=1;curveFitting=1;jiggle=2;fontFamily=Comic Sans MS;" parent="1" vertex="1">
          <mxGeometry x="2145.25" y="1210" width="100" height="40" as="geometry" />
        </mxCell>
        <mxCell id="Su5WRMt0bHYKvWhULNg3-70" style="edgeStyle=orthogonalEdgeStyle;rounded=0;orthogonalLoop=1;jettySize=auto;html=1;exitX=0.5;exitY=1;exitDx=0;exitDy=0;endArrow=none;endFill=0;sketch=1;curveFitting=1;jiggle=2;dashed=1;" parent="1" source="Su5WRMt0bHYKvWhULNg3-71" edge="1">
          <mxGeometry relative="1" as="geometry">
            <mxPoint x="2190" y="1410" as="targetPoint" />
          </mxGeometry>
        </mxCell>
        <mxCell id="Su5WRMt0bHYKvWhULNg3-71" value="以太网驱动程序&lt;br&gt;含Mac地址" style="rounded=0;whiteSpace=wrap;html=1;sketch=1;curveFitting=1;jiggle=2;fontFamily=Comic Sans MS;" parent="1" vertex="1">
          <mxGeometry x="2147.88" y="1310" width="94.75" height="60" as="geometry" />
        </mxCell>
        <mxCell id="Su5WRMt0bHYKvWhULNg3-72" value="" style="endArrow=none;html=1;rounded=0;sketch=1;curveFitting=1;jiggle=2;" parent="1" edge="1">
          <mxGeometry width="50" height="50" relative="1" as="geometry">
            <mxPoint x="1730" y="1410" as="sourcePoint" />
            <mxPoint x="2241" y="1410" as="targetPoint" />
          </mxGeometry>
        </mxCell>
        <mxCell id="Su5WRMt0bHYKvWhULNg3-73" value="以太网" style="edgeLabel;html=1;align=center;verticalAlign=middle;resizable=0;points=[];fontFamily=Comic Sans MS;" parent="Su5WRMt0bHYKvWhULNg3-72" vertex="1" connectable="0">
          <mxGeometry x="0.0644" y="-3" relative="1" as="geometry">
            <mxPoint x="-20" y="-3" as="offset" />
          </mxGeometry>
        </mxCell>
        <mxCell id="Su5WRMt0bHYKvWhULNg3-74" value="" style="endArrow=none;html=1;rounded=0;sketch=1;curveFitting=1;jiggle=2;fontColor=#FF0000;strokeColor=#FF0000;" parent="1" edge="1">
          <mxGeometry width="50" height="50" relative="1" as="geometry">
            <mxPoint x="2290.25" y="1045" as="sourcePoint" />
            <mxPoint x="2410.25" y="1045" as="targetPoint" />
          </mxGeometry>
        </mxCell>
        <mxCell id="Su5WRMt0bHYKvWhULNg3-75" style="edgeStyle=orthogonalEdgeStyle;rounded=0;orthogonalLoop=1;jettySize=auto;html=1;exitX=0.5;exitY=1;exitDx=0;exitDy=0;entryX=0.5;entryY=0;entryDx=0;entryDy=0;startArrow=open;startFill=0;sketch=1;curveFitting=1;jiggle=2;endArrow=open;endFill=0;fontFamily=Comic Sans MS;fontColor=#FF0000;strokeColor=#FF0000;" parent="1" edge="1">
          <mxGeometry relative="1" as="geometry">
            <mxPoint x="2350.25" y="1005" as="sourcePoint" />
            <mxPoint x="2350.25" y="1085" as="targetPoint" />
          </mxGeometry>
        </mxCell>
        <mxCell id="Su5WRMt0bHYKvWhULNg3-76" value="&lt;font face=&quot;Comic Sans MS&quot;&gt;用户层（应用程序细节）&lt;/font&gt;" style="text;html=1;align=center;verticalAlign=middle;resizable=0;points=[];autosize=1;strokeColor=none;fillColor=none;fontColor=#FF0000;" parent="1" vertex="1">
          <mxGeometry x="2270" y="970" width="160" height="30" as="geometry" />
        </mxCell>
        <mxCell id="Su5WRMt0bHYKvWhULNg3-77" value="&lt;font face=&quot;Comic Sans MS&quot;&gt;内核层（网络通信细节）&lt;/font&gt;" style="text;html=1;align=center;verticalAlign=middle;resizable=0;points=[];autosize=1;strokeColor=none;fillColor=none;fontColor=#FF0000;" parent="1" vertex="1">
          <mxGeometry x="2270" y="1085" width="160" height="30" as="geometry" />
        </mxCell>
        <mxCell id="Su5WRMt0bHYKvWhULNg3-78" style="edgeStyle=orthogonalEdgeStyle;rounded=0;orthogonalLoop=1;jettySize=auto;html=1;startArrow=open;startFill=0;endArrow=open;endFill=0;sketch=1;curveFitting=1;jiggle=2;dashed=1;dashPattern=8 8;entryX=0;entryY=0.5;entryDx=0;entryDy=0;exitX=1;exitY=0.5;exitDx=0;exitDy=0;" parent="1" source="Su5WRMt0bHYKvWhULNg3-80" target="Su5WRMt0bHYKvWhULNg3-69" edge="1">
          <mxGeometry relative="1" as="geometry">
            <mxPoint x="2040" y="1280" as="sourcePoint" />
            <mxPoint x="1940" y="1240" as="targetPoint" />
          </mxGeometry>
        </mxCell>
        <mxCell id="Su5WRMt0bHYKvWhULNg3-79" value="IP协议" style="edgeLabel;html=1;align=center;verticalAlign=middle;resizable=0;points=[];fontFamily=Comic Sans MS;" parent="Su5WRMt0bHYKvWhULNg3-78" vertex="1" connectable="0">
          <mxGeometry x="-0.0093" y="-1" relative="1" as="geometry">
            <mxPoint y="-1" as="offset" />
          </mxGeometry>
        </mxCell>
        <mxCell id="Su5WRMt0bHYKvWhULNg3-80" value="IP路由器" style="rounded=0;whiteSpace=wrap;html=1;sketch=1;curveFitting=1;jiggle=2;fontFamily=Comic Sans MS;" parent="1" vertex="1">
          <mxGeometry x="1930" y="1210" width="100" height="40" as="geometry" />
        </mxCell>
        <mxCell id="Su5WRMt0bHYKvWhULNg3-81" value="" style="edgeStyle=orthogonalEdgeStyle;rounded=0;orthogonalLoop=1;jettySize=auto;html=1;exitX=1;exitY=0.5;exitDx=0;exitDy=0;entryX=0;entryY=0.5;entryDx=0;entryDy=0;startArrow=open;startFill=0;endArrow=open;endFill=0;sketch=1;curveFitting=1;jiggle=2;dashed=1;dashPattern=8 8;" parent="1" source="Su5WRMt0bHYKvWhULNg3-63" target="Su5WRMt0bHYKvWhULNg3-83" edge="1">
          <mxGeometry relative="1" as="geometry">
            <mxPoint x="1860" y="1350" as="sourcePoint" />
            <mxPoint x="2100" y="1350" as="targetPoint" />
          </mxGeometry>
        </mxCell>
        <mxCell id="Su5WRMt0bHYKvWhULNg3-82" value="以太网协议" style="edgeLabel;html=1;align=center;verticalAlign=middle;resizable=0;points=[];fontFamily=Comic Sans MS;" parent="Su5WRMt0bHYKvWhULNg3-81" vertex="1" connectable="0">
          <mxGeometry x="-0.0231" y="3" relative="1" as="geometry">
            <mxPoint x="3" y="3" as="offset" />
          </mxGeometry>
        </mxCell>
        <mxCell id="Su5WRMt0bHYKvWhULNg3-83" value="以太网驱动程序" style="rounded=0;whiteSpace=wrap;html=1;sketch=1;curveFitting=1;jiggle=2;fontFamily=Comic Sans MS;" parent="1" vertex="1">
          <mxGeometry x="1915" y="1330" width="60" height="40" as="geometry" />
        </mxCell>
        <mxCell id="Su5WRMt0bHYKvWhULNg3-84" value="以太网驱动程序" style="rounded=0;whiteSpace=wrap;html=1;sketch=1;curveFitting=1;jiggle=2;fontFamily=Comic Sans MS;" parent="1" vertex="1">
          <mxGeometry x="1990" y="1330" width="60" height="40" as="geometry" />
        </mxCell>
        <mxCell id="Su5WRMt0bHYKvWhULNg3-85" value="" style="edgeStyle=orthogonalEdgeStyle;rounded=0;orthogonalLoop=1;jettySize=auto;html=1;exitX=1;exitY=0.5;exitDx=0;exitDy=0;startArrow=open;startFill=0;endArrow=open;endFill=0;sketch=1;curveFitting=1;jiggle=2;dashed=1;dashPattern=8 8;entryX=0;entryY=0.5;entryDx=0;entryDy=0;" parent="1" source="Su5WRMt0bHYKvWhULNg3-84" target="Su5WRMt0bHYKvWhULNg3-71" edge="1">
          <mxGeometry relative="1" as="geometry">
            <mxPoint x="2030.12" y="1349.6399999999999" as="sourcePoint" />
            <mxPoint x="2100" y="1380" as="targetPoint" />
          </mxGeometry>
        </mxCell>
        <mxCell id="Su5WRMt0bHYKvWhULNg3-86" value="以太网协议" style="edgeLabel;html=1;align=center;verticalAlign=middle;resizable=0;points=[];fontFamily=Comic Sans MS;" parent="Su5WRMt0bHYKvWhULNg3-85" vertex="1" connectable="0">
          <mxGeometry x="-0.0231" y="3" relative="1" as="geometry">
            <mxPoint x="3" y="3" as="offset" />
          </mxGeometry>
        </mxCell>
        <mxCell id="Su5WRMt0bHYKvWhULNg3-87" value="" style="rounded=0;orthogonalLoop=1;jettySize=auto;html=1;exitX=0.5;exitY=0;exitDx=0;exitDy=0;entryX=0.5;entryY=1;entryDx=0;entryDy=0;startArrow=open;startFill=0;endArrow=open;endFill=0;sketch=1;curveFitting=1;jiggle=2;dashed=1;dashPattern=8 8;" parent="1" source="Su5WRMt0bHYKvWhULNg3-83" target="Su5WRMt0bHYKvWhULNg3-80" edge="1">
          <mxGeometry relative="1" as="geometry">
            <mxPoint x="1820" y="1360" as="sourcePoint" />
            <mxPoint x="1920" y="1360" as="targetPoint" />
          </mxGeometry>
        </mxCell>
        <mxCell id="Su5WRMt0bHYKvWhULNg3-88" value="向上交付" style="edgeLabel;html=1;align=center;verticalAlign=middle;resizable=0;points=[];fontFamily=Comic Sans MS;" parent="Su5WRMt0bHYKvWhULNg3-87" vertex="1" connectable="0">
          <mxGeometry x="-0.0231" y="3" relative="1" as="geometry">
            <mxPoint x="-17" y="10" as="offset" />
          </mxGeometry>
        </mxCell>
        <mxCell id="Su5WRMt0bHYKvWhULNg3-89" value="" style="rounded=0;orthogonalLoop=1;jettySize=auto;html=1;exitX=0.5;exitY=0;exitDx=0;exitDy=0;entryX=0.5;entryY=1;entryDx=0;entryDy=0;startArrow=open;startFill=0;endArrow=open;endFill=0;sketch=1;curveFitting=1;jiggle=2;dashed=1;dashPattern=8 8;" parent="1" source="Su5WRMt0bHYKvWhULNg3-84" target="Su5WRMt0bHYKvWhULNg3-80" edge="1">
          <mxGeometry relative="1" as="geometry">
            <mxPoint x="1950" y="1340" as="sourcePoint" />
            <mxPoint x="1990" y="1260" as="targetPoint" />
          </mxGeometry>
        </mxCell>
        <mxCell id="Su5WRMt0bHYKvWhULNg3-90" value="向上交付" style="edgeLabel;html=1;align=center;verticalAlign=middle;resizable=0;points=[];fontFamily=Comic Sans MS;" parent="Su5WRMt0bHYKvWhULNg3-89" vertex="1" connectable="0">
          <mxGeometry x="-0.0231" y="3" relative="1" as="geometry">
            <mxPoint x="22" y="8" as="offset" />
          </mxGeometry>
        </mxCell>
        <mxCell id="Su5WRMt0bHYKvWhULNg3-91" value="发送&quot;hello&quot;" style="rounded=1;whiteSpace=wrap;html=1;sketch=1;curveFitting=1;jiggle=2;fontFamily=Comic Sans MS;fontStyle=1;fontSize=12;" parent="1" vertex="1">
          <mxGeometry x="1520" y="370" width="105" height="20" as="geometry" />
        </mxCell>
        <mxCell id="Su5WRMt0bHYKvWhULNg3-92" value="&quot;hello&quot;" style="rounded=1;whiteSpace=wrap;html=1;sketch=1;curveFitting=1;jiggle=2;fontFamily=Comic Sans MS;fontStyle=1;fontSize=12;" parent="1" vertex="1">
          <mxGeometry x="1585" y="490" width="40" height="20" as="geometry" />
        </mxCell>
        <mxCell id="Su5WRMt0bHYKvWhULNg3-93" value="HTTP报头" style="rounded=1;whiteSpace=wrap;html=1;sketch=1;curveFitting=1;jiggle=2;fontFamily=Comic Sans MS;fontStyle=1;fontSize=12;" parent="1" vertex="1">
          <mxGeometry x="1515" y="490" width="70" height="20" as="geometry" />
        </mxCell>
        <mxCell id="Su5WRMt0bHYKvWhULNg3-94" value="&quot;hello&quot;" style="rounded=1;whiteSpace=wrap;html=1;sketch=1;curveFitting=1;jiggle=2;fontFamily=Comic Sans MS;fontStyle=1;fontSize=12;" parent="1" vertex="1">
          <mxGeometry x="1585" y="610" width="40" height="20" as="geometry" />
        </mxCell>
        <mxCell id="Su5WRMt0bHYKvWhULNg3-95" value="HTTP报头" style="rounded=1;whiteSpace=wrap;html=1;sketch=1;curveFitting=1;jiggle=2;fontFamily=Comic Sans MS;fontStyle=1;fontSize=12;" parent="1" vertex="1">
          <mxGeometry x="1515" y="610" width="70" height="20" as="geometry" />
        </mxCell>
        <mxCell id="Su5WRMt0bHYKvWhULNg3-96" value="TIP报头" style="rounded=1;whiteSpace=wrap;html=1;sketch=1;curveFitting=1;jiggle=2;fontFamily=Comic Sans MS;fontStyle=1;fontSize=12;" parent="1" vertex="1">
          <mxGeometry x="1460" y="610" width="55" height="20" as="geometry" />
        </mxCell>
        <mxCell id="Su5WRMt0bHYKvWhULNg3-97" value="&quot;hello&quot;" style="rounded=1;whiteSpace=wrap;html=1;sketch=1;curveFitting=1;jiggle=2;fontFamily=Comic Sans MS;fontStyle=1;fontSize=12;" parent="1" vertex="1">
          <mxGeometry x="1585" y="730" width="40" height="20" as="geometry" />
        </mxCell>
        <mxCell id="Su5WRMt0bHYKvWhULNg3-98" value="HTTP报头" style="rounded=1;whiteSpace=wrap;html=1;sketch=1;curveFitting=1;jiggle=2;fontFamily=Comic Sans MS;fontStyle=1;fontSize=12;" parent="1" vertex="1">
          <mxGeometry x="1515" y="730" width="70" height="20" as="geometry" />
        </mxCell>
        <mxCell id="Su5WRMt0bHYKvWhULNg3-99" value="IP报头" style="rounded=1;whiteSpace=wrap;html=1;sketch=1;curveFitting=1;jiggle=2;fontFamily=Comic Sans MS;fontStyle=1;fontSize=12;" parent="1" vertex="1">
          <mxGeometry x="1415" y="730" width="45" height="20" as="geometry" />
        </mxCell>
        <mxCell id="Su5WRMt0bHYKvWhULNg3-101" value="TIP报头" style="rounded=1;whiteSpace=wrap;html=1;sketch=1;curveFitting=1;jiggle=2;fontFamily=Comic Sans MS;fontStyle=1;fontSize=12;" parent="1" vertex="1">
          <mxGeometry x="1460" y="730" width="55" height="20" as="geometry" />
        </mxCell>
        <mxCell id="Su5WRMt0bHYKvWhULNg3-102" value="&quot;hello&quot;" style="rounded=1;whiteSpace=wrap;html=1;sketch=1;curveFitting=1;jiggle=2;fontFamily=Comic Sans MS;fontStyle=1;fontSize=12;" parent="1" vertex="1">
          <mxGeometry x="2250.25" y="730" width="40" height="20" as="geometry" />
        </mxCell>
        <mxCell id="Su5WRMt0bHYKvWhULNg3-103" value="HTTP报头" style="rounded=1;whiteSpace=wrap;html=1;sketch=1;curveFitting=1;jiggle=2;fontFamily=Comic Sans MS;fontStyle=1;fontSize=12;" parent="1" vertex="1">
          <mxGeometry x="2180.25" y="730" width="70" height="20" as="geometry" />
        </mxCell>
        <mxCell id="Su5WRMt0bHYKvWhULNg3-104" value="IP报头" style="rounded=1;whiteSpace=wrap;html=1;sketch=1;curveFitting=1;jiggle=2;fontFamily=Comic Sans MS;fontStyle=1;fontSize=12;" parent="1" vertex="1">
          <mxGeometry x="2080.25" y="730" width="45" height="20" as="geometry" />
        </mxCell>
        <mxCell id="Su5WRMt0bHYKvWhULNg3-105" value="TIP报头" style="rounded=1;whiteSpace=wrap;html=1;sketch=1;curveFitting=1;jiggle=2;fontFamily=Comic Sans MS;fontStyle=1;fontSize=12;" parent="1" vertex="1">
          <mxGeometry x="2125.25" y="730" width="55" height="20" as="geometry" />
        </mxCell>
        <mxCell id="Su5WRMt0bHYKvWhULNg3-106" value="得到&quot;hello&quot;" style="rounded=1;whiteSpace=wrap;html=1;sketch=1;curveFitting=1;jiggle=2;fontFamily=Comic Sans MS;fontStyle=1;fontSize=12;" parent="1" vertex="1">
          <mxGeometry x="2080.25" y="370" width="104.75" height="20" as="geometry" />
        </mxCell>
        <mxCell id="Su5WRMt0bHYKvWhULNg3-107" value="&quot;hello&quot;" style="rounded=1;whiteSpace=wrap;html=1;sketch=1;curveFitting=1;jiggle=2;fontFamily=Comic Sans MS;fontStyle=1;fontSize=12;" parent="1" vertex="1">
          <mxGeometry x="2150.25" y="490" width="40" height="20" as="geometry" />
        </mxCell>
        <mxCell id="Su5WRMt0bHYKvWhULNg3-108" value="HTTP报头" style="rounded=1;whiteSpace=wrap;html=1;sketch=1;curveFitting=1;jiggle=2;fontFamily=Comic Sans MS;fontStyle=1;fontSize=12;" parent="1" vertex="1">
          <mxGeometry x="2080.25" y="490" width="70" height="20" as="geometry" />
        </mxCell>
        <mxCell id="Su5WRMt0bHYKvWhULNg3-109" value="&quot;hello&quot;" style="rounded=1;whiteSpace=wrap;html=1;sketch=1;curveFitting=1;jiggle=2;fontFamily=Comic Sans MS;fontStyle=1;fontSize=12;" parent="1" vertex="1">
          <mxGeometry x="2205.25" y="610" width="40" height="20" as="geometry" />
        </mxCell>
        <mxCell id="Su5WRMt0bHYKvWhULNg3-110" value="HTTP报头" style="rounded=1;whiteSpace=wrap;html=1;sketch=1;curveFitting=1;jiggle=2;fontFamily=Comic Sans MS;fontStyle=1;fontSize=12;" parent="1" vertex="1">
          <mxGeometry x="2135.25" y="610" width="70" height="20" as="geometry" />
        </mxCell>
        <mxCell id="Su5WRMt0bHYKvWhULNg3-111" value="TIP报头" style="rounded=1;whiteSpace=wrap;html=1;sketch=1;curveFitting=1;jiggle=2;fontFamily=Comic Sans MS;fontStyle=1;fontSize=12;" parent="1" vertex="1">
          <mxGeometry x="2080.25" y="610" width="55" height="20" as="geometry" />
        </mxCell>
        <mxCell id="Su5WRMt0bHYKvWhULNg3-114" value="request" style="rounded=1;whiteSpace=wrap;html=1;sketch=1;curveFitting=1;jiggle=2;fontFamily=Comic Sans MS;fontStyle=1;fontSize=12;" parent="1" vertex="1">
          <mxGeometry x="1520" y="390" width="105" height="20" as="geometry" />
        </mxCell>
        <mxCell id="Su5WRMt0bHYKvWhULNg3-119" value="数据段" style="rounded=1;whiteSpace=wrap;html=1;sketch=1;curveFitting=1;jiggle=2;fontFamily=Comic Sans MS;fontStyle=1;fontSize=12;" parent="1" vertex="1">
          <mxGeometry x="1515" y="510" width="110" height="20" as="geometry" />
        </mxCell>
        <mxCell id="Su5WRMt0bHYKvWhULNg3-120" value="数据报" style="rounded=1;whiteSpace=wrap;html=1;sketch=1;curveFitting=1;jiggle=2;fontFamily=Comic Sans MS;fontStyle=1;fontSize=12;" parent="1" vertex="1">
          <mxGeometry x="1460.5" y="630" width="164.5" height="20" as="geometry" />
        </mxCell>
        <mxCell id="Su5WRMt0bHYKvWhULNg3-123" value="" style="edgeStyle=orthogonalEdgeStyle;rounded=0;orthogonalLoop=1;jettySize=auto;html=1;" parent="1" source="Su5WRMt0bHYKvWhULNg3-121" target="Su5WRMt0bHYKvWhULNg3-98" edge="1">
          <mxGeometry relative="1" as="geometry" />
        </mxCell>
        <mxCell id="Su5WRMt0bHYKvWhULNg3-121" value="数据帧" style="rounded=1;whiteSpace=wrap;html=1;sketch=1;curveFitting=1;jiggle=2;fontFamily=Comic Sans MS;fontStyle=1;fontSize=12;" parent="1" vertex="1">
          <mxGeometry x="1415" y="750" width="211" height="20" as="geometry" />
        </mxCell>
        <mxCell id="Su5WRMt0bHYKvWhULNg3-125" value="response" style="rounded=1;whiteSpace=wrap;html=1;sketch=1;curveFitting=1;jiggle=2;fontFamily=Comic Sans MS;fontStyle=1;fontSize=12;" parent="1" vertex="1">
          <mxGeometry x="2080.25" y="390" width="105" height="20" as="geometry" />
        </mxCell>
        <mxCell id="Su5WRMt0bHYKvWhULNg3-126" value="数据段" style="rounded=1;whiteSpace=wrap;html=1;sketch=1;curveFitting=1;jiggle=2;fontFamily=Comic Sans MS;fontStyle=1;fontSize=12;" parent="1" vertex="1">
          <mxGeometry x="2080.25" y="510" width="110" height="20" as="geometry" />
        </mxCell>
        <mxCell id="Su5WRMt0bHYKvWhULNg3-127" value="数据报" style="rounded=1;whiteSpace=wrap;html=1;sketch=1;curveFitting=1;jiggle=2;fontFamily=Comic Sans MS;fontStyle=1;fontSize=12;" parent="1" vertex="1">
          <mxGeometry x="2080.25" y="630" width="164.5" height="20" as="geometry" />
        </mxCell>
        <mxCell id="Su5WRMt0bHYKvWhULNg3-128" value="数据帧" style="rounded=1;whiteSpace=wrap;html=1;sketch=1;curveFitting=1;jiggle=2;fontFamily=Comic Sans MS;fontStyle=1;fontSize=12;" parent="1" vertex="1">
          <mxGeometry x="2080.25" y="750" width="211" height="20" as="geometry" />
        </mxCell>
        <mxCell id="Su5WRMt0bHYKvWhULNg3-130" style="edgeStyle=orthogonalEdgeStyle;rounded=0;orthogonalLoop=1;jettySize=auto;html=1;exitX=0.5;exitY=1;exitDx=0;exitDy=0;entryX=0.5;entryY=0;entryDx=0;entryDy=0;startArrow=none;startFill=0;sketch=1;curveFitting=1;jiggle=2;endArrow=open;endFill=0;fontFamily=Comic Sans MS;fontStyle=1;fontSize=12;" parent="1" source="Su5WRMt0bHYKvWhULNg3-3" target="Su5WRMt0bHYKvWhULNg3-5" edge="1">
          <mxGeometry relative="1" as="geometry">
            <mxPoint x="1689.79" y="520" as="sourcePoint" />
            <mxPoint x="1689.79" y="600" as="targetPoint" />
          </mxGeometry>
        </mxCell>
        <mxCell id="Su5WRMt0bHYKvWhULNg3-131" value="封装" style="edgeLabel;html=1;align=center;verticalAlign=middle;resizable=0;points=[];fontFamily=Comic Sans MS;" parent="Su5WRMt0bHYKvWhULNg3-130" vertex="1" connectable="0">
          <mxGeometry x="-0.0285" y="2" relative="1" as="geometry">
            <mxPoint x="-2" as="offset" />
          </mxGeometry>
        </mxCell>
        <mxCell id="Su5WRMt0bHYKvWhULNg3-132" style="edgeStyle=orthogonalEdgeStyle;rounded=0;orthogonalLoop=1;jettySize=auto;html=1;exitX=0.5;exitY=1;exitDx=0;exitDy=0;entryX=0.5;entryY=0;entryDx=0;entryDy=0;startArrow=none;startFill=0;sketch=1;curveFitting=1;jiggle=2;endArrow=open;endFill=0;fontFamily=Comic Sans MS;fontStyle=1;fontSize=12;" parent="1" source="Su5WRMt0bHYKvWhULNg3-5" target="Su5WRMt0bHYKvWhULNg3-7" edge="1">
          <mxGeometry relative="1" as="geometry">
            <mxPoint x="1689.79" y="640" as="sourcePoint" />
            <mxPoint x="1689.79" y="720" as="targetPoint" />
          </mxGeometry>
        </mxCell>
        <mxCell id="Su5WRMt0bHYKvWhULNg3-133" value="封装" style="edgeLabel;html=1;align=center;verticalAlign=middle;resizable=0;points=[];fontFamily=Comic Sans MS;" parent="Su5WRMt0bHYKvWhULNg3-132" vertex="1" connectable="0">
          <mxGeometry x="-0.0285" y="2" relative="1" as="geometry">
            <mxPoint x="-2" as="offset" />
          </mxGeometry>
        </mxCell>
        <mxCell id="Su5WRMt0bHYKvWhULNg3-135" style="edgeStyle=orthogonalEdgeStyle;rounded=0;orthogonalLoop=1;jettySize=auto;html=1;exitX=0.5;exitY=1;exitDx=0;exitDy=0;entryX=0.5;entryY=0;entryDx=0;entryDy=0;startArrow=open;startFill=0;sketch=1;curveFitting=1;jiggle=2;endArrow=none;endFill=0;fontFamily=Comic Sans MS;fontStyle=1;fontSize=12;" parent="1" edge="1">
          <mxGeometry relative="1" as="geometry">
            <mxPoint x="2014.57" y="520" as="sourcePoint" />
            <mxPoint x="2014.57" y="600" as="targetPoint" />
          </mxGeometry>
        </mxCell>
        <mxCell id="Su5WRMt0bHYKvWhULNg3-136" value="分离" style="edgeLabel;html=1;align=center;verticalAlign=middle;resizable=0;points=[];" parent="Su5WRMt0bHYKvWhULNg3-135" vertex="1" connectable="0">
          <mxGeometry x="-0.0768" y="-1" relative="1" as="geometry">
            <mxPoint y="3" as="offset" />
          </mxGeometry>
        </mxCell>
        <mxCell id="Su5WRMt0bHYKvWhULNg3-137" style="edgeStyle=orthogonalEdgeStyle;rounded=0;orthogonalLoop=1;jettySize=auto;html=1;exitX=0.5;exitY=1;exitDx=0;exitDy=0;entryX=0.5;entryY=0;entryDx=0;entryDy=0;startArrow=open;startFill=0;sketch=1;curveFitting=1;jiggle=2;endArrow=none;endFill=0;fontFamily=Comic Sans MS;fontStyle=1;fontSize=12;" parent="1" edge="1">
          <mxGeometry relative="1" as="geometry">
            <mxPoint x="2014.57" y="640" as="sourcePoint" />
            <mxPoint x="2014.57" y="720" as="targetPoint" />
          </mxGeometry>
        </mxCell>
        <mxCell id="Su5WRMt0bHYKvWhULNg3-138" value="分离" style="edgeLabel;html=1;align=center;verticalAlign=middle;resizable=0;points=[];" parent="Su5WRMt0bHYKvWhULNg3-137" vertex="1" connectable="0">
          <mxGeometry x="-0.0768" y="-1" relative="1" as="geometry">
            <mxPoint y="3" as="offset" />
          </mxGeometry>
        </mxCell>
        <mxCell id="Su5WRMt0bHYKvWhULNg3-139" value="路由器" style="text;html=1;align=center;verticalAlign=middle;resizable=0;points=[];autosize=1;strokeColor=none;fillColor=none;fontFamily=Comic Sans MS;fontColor=#6F0000;" parent="1" vertex="1">
          <mxGeometry x="1950" y="1160" width="60" height="30" as="geometry" />
        </mxCell>
        <mxCell id="zupbCZH1lNRX8spcNWEF-1" value="" style="endArrow=none;html=1;rounded=0;sketch=1;curveFitting=1;jiggle=2;fontColor=#000000;" parent="1" edge="1">
          <mxGeometry width="50" height="50" relative="1" as="geometry">
            <mxPoint x="1959" y="2143" as="sourcePoint" />
            <mxPoint x="1960" y="1800" as="targetPoint" />
          </mxGeometry>
        </mxCell>
        <mxCell id="zupbCZH1lNRX8spcNWEF-2" value="" style="endArrow=none;html=1;rounded=0;sketch=1;curveFitting=1;jiggle=2;fontColor=#000000;" parent="1" edge="1">
          <mxGeometry width="50" height="50" relative="1" as="geometry">
            <mxPoint x="2080" y="2143" as="sourcePoint" />
            <mxPoint x="2080" y="1760" as="targetPoint" />
          </mxGeometry>
        </mxCell>
        <mxCell id="zupbCZH1lNRX8spcNWEF-3" value="" style="edgeStyle=none;orthogonalLoop=1;jettySize=auto;html=1;rounded=0;sketch=1;curveFitting=1;jiggle=2;fontColor=#000000;" parent="1" edge="1">
          <mxGeometry width="100" relative="1" as="geometry">
            <mxPoint x="1960" y="1810" as="sourcePoint" />
            <mxPoint x="2080" y="1830" as="targetPoint" />
            <Array as="points" />
          </mxGeometry>
        </mxCell>
        <mxCell id="zupbCZH1lNRX8spcNWEF-4" value="SYN" style="edgeLabel;html=1;align=center;verticalAlign=middle;resizable=0;points=[];fontFamily=Comic Sans MS;fontColor=#000000;" parent="zupbCZH1lNRX8spcNWEF-3" vertex="1" connectable="0">
          <mxGeometry x="0.0003" y="1" relative="1" as="geometry">
            <mxPoint as="offset" />
          </mxGeometry>
        </mxCell>
        <mxCell id="zupbCZH1lNRX8spcNWEF-5" value="&lt;font face=&quot;Comic Sans MS&quot;&gt;tcp_server&lt;/font&gt;" style="text;html=1;align=center;verticalAlign=middle;resizable=0;points=[];autosize=1;strokeColor=none;fillColor=none;fontColor=#000000;" parent="1" vertex="1">
          <mxGeometry x="2035.25" y="1730" width="90" height="30" as="geometry" />
        </mxCell>
        <mxCell id="zupbCZH1lNRX8spcNWEF-6" value="" style="edgeStyle=none;orthogonalLoop=1;jettySize=auto;html=1;rounded=0;sketch=1;curveFitting=1;jiggle=2;fontColor=#000000;" parent="1" edge="1">
          <mxGeometry width="100" relative="1" as="geometry">
            <mxPoint x="2080" y="1830" as="sourcePoint" />
            <mxPoint x="1960" y="1850" as="targetPoint" />
            <Array as="points" />
          </mxGeometry>
        </mxCell>
        <mxCell id="zupbCZH1lNRX8spcNWEF-7" value="SYN+ACK" style="edgeLabel;html=1;align=center;verticalAlign=middle;resizable=0;points=[];fontFamily=Comic Sans MS;fontColor=#000000;" parent="zupbCZH1lNRX8spcNWEF-6" vertex="1" connectable="0">
          <mxGeometry x="0.0003" y="1" relative="1" as="geometry">
            <mxPoint as="offset" />
          </mxGeometry>
        </mxCell>
        <mxCell id="zupbCZH1lNRX8spcNWEF-8" value="" style="edgeStyle=none;orthogonalLoop=1;jettySize=auto;html=1;rounded=0;sketch=1;curveFitting=1;jiggle=2;fontColor=#000000;" parent="1" edge="1">
          <mxGeometry width="100" relative="1" as="geometry">
            <mxPoint x="1960" y="1850" as="sourcePoint" />
            <mxPoint x="2080" y="1870" as="targetPoint" />
            <Array as="points" />
          </mxGeometry>
        </mxCell>
        <mxCell id="zupbCZH1lNRX8spcNWEF-9" value="ACK" style="edgeLabel;html=1;align=center;verticalAlign=middle;resizable=0;points=[];fontFamily=Comic Sans MS;fontColor=#000000;" parent="zupbCZH1lNRX8spcNWEF-8" vertex="1" connectable="0">
          <mxGeometry x="0.0003" y="1" relative="1" as="geometry">
            <mxPoint as="offset" />
          </mxGeometry>
        </mxCell>
        <mxCell id="zupbCZH1lNRX8spcNWEF-14" value="" style="edgeStyle=none;orthogonalLoop=1;jettySize=auto;html=1;rounded=0;sketch=1;curveFitting=1;jiggle=2;fontColor=#000000;" parent="1" edge="1">
          <mxGeometry width="100" relative="1" as="geometry">
            <mxPoint x="1960.25" y="1900" as="sourcePoint" />
            <mxPoint x="2080.25" y="1920" as="targetPoint" />
            <Array as="points" />
          </mxGeometry>
        </mxCell>
        <mxCell id="zupbCZH1lNRX8spcNWEF-15" value="DATA" style="edgeLabel;html=1;align=center;verticalAlign=middle;resizable=0;points=[];fontFamily=Comic Sans MS;fontColor=#000000;" parent="zupbCZH1lNRX8spcNWEF-14" vertex="1" connectable="0">
          <mxGeometry x="0.0003" y="1" relative="1" as="geometry">
            <mxPoint as="offset" />
          </mxGeometry>
        </mxCell>
        <mxCell id="zupbCZH1lNRX8spcNWEF-16" value="" style="edgeStyle=none;orthogonalLoop=1;jettySize=auto;html=1;rounded=0;sketch=1;curveFitting=1;jiggle=2;fontColor=#000000;" parent="1" edge="1">
          <mxGeometry width="100" relative="1" as="geometry">
            <mxPoint x="2080" y="1920" as="sourcePoint" />
            <mxPoint x="1960" y="1940" as="targetPoint" />
            <Array as="points" />
          </mxGeometry>
        </mxCell>
        <mxCell id="zupbCZH1lNRX8spcNWEF-17" value="ACK" style="edgeLabel;html=1;align=center;verticalAlign=middle;resizable=0;points=[];fontFamily=Comic Sans MS;fontColor=#000000;" parent="zupbCZH1lNRX8spcNWEF-16" vertex="1" connectable="0">
          <mxGeometry x="0.0003" y="1" relative="1" as="geometry">
            <mxPoint as="offset" />
          </mxGeometry>
        </mxCell>
        <mxCell id="zupbCZH1lNRX8spcNWEF-23" value="" style="edgeStyle=none;orthogonalLoop=1;jettySize=auto;html=1;rounded=0;sketch=1;curveFitting=1;jiggle=2;fontColor=#000000;" parent="1" edge="1">
          <mxGeometry width="100" relative="1" as="geometry">
            <mxPoint x="2079" y="1960" as="sourcePoint" />
            <mxPoint x="1959" y="1980" as="targetPoint" />
            <Array as="points" />
          </mxGeometry>
        </mxCell>
        <mxCell id="zupbCZH1lNRX8spcNWEF-24" value="ACK" style="edgeLabel;html=1;align=center;verticalAlign=middle;resizable=0;points=[];fontFamily=Comic Sans MS;fontColor=#000000;" parent="zupbCZH1lNRX8spcNWEF-23" vertex="1" connectable="0">
          <mxGeometry x="0.0003" y="1" relative="1" as="geometry">
            <mxPoint as="offset" />
          </mxGeometry>
        </mxCell>
        <mxCell id="zupbCZH1lNRX8spcNWEF-25" value="" style="edgeStyle=none;orthogonalLoop=1;jettySize=auto;html=1;rounded=0;sketch=1;curveFitting=1;jiggle=2;fontColor=#000000;" parent="1" edge="1">
          <mxGeometry width="100" relative="1" as="geometry">
            <mxPoint x="1960.25" y="1980" as="sourcePoint" />
            <mxPoint x="2080.25" y="2000" as="targetPoint" />
            <Array as="points" />
          </mxGeometry>
        </mxCell>
        <mxCell id="zupbCZH1lNRX8spcNWEF-26" value="DATA" style="edgeLabel;html=1;align=center;verticalAlign=middle;resizable=0;points=[];fontFamily=Comic Sans MS;fontColor=#000000;" parent="zupbCZH1lNRX8spcNWEF-25" vertex="1" connectable="0">
          <mxGeometry x="0.0003" y="1" relative="1" as="geometry">
            <mxPoint as="offset" />
          </mxGeometry>
        </mxCell>
        <mxCell id="zupbCZH1lNRX8spcNWEF-27" value="" style="edgeStyle=none;orthogonalLoop=1;jettySize=auto;html=1;rounded=0;sketch=1;curveFitting=1;jiggle=2;fontColor=#000000;" parent="1" edge="1">
          <mxGeometry width="100" relative="1" as="geometry">
            <mxPoint x="1959.13" y="2030" as="sourcePoint" />
            <mxPoint x="2079.13" y="2050" as="targetPoint" />
            <Array as="points" />
          </mxGeometry>
        </mxCell>
        <mxCell id="zupbCZH1lNRX8spcNWEF-28" value="FIN" style="edgeLabel;html=1;align=center;verticalAlign=middle;resizable=0;points=[];fontFamily=Comic Sans MS;fontColor=#000000;" parent="zupbCZH1lNRX8spcNWEF-27" vertex="1" connectable="0">
          <mxGeometry x="0.0003" y="1" relative="1" as="geometry">
            <mxPoint as="offset" />
          </mxGeometry>
        </mxCell>
        <mxCell id="zupbCZH1lNRX8spcNWEF-29" value="" style="edgeStyle=none;orthogonalLoop=1;jettySize=auto;html=1;rounded=0;sketch=1;curveFitting=1;jiggle=2;fontColor=#000000;" parent="1" edge="1">
          <mxGeometry width="100" relative="1" as="geometry">
            <mxPoint x="2078.88" y="2050" as="sourcePoint" />
            <mxPoint x="1958.88" y="2070" as="targetPoint" />
            <Array as="points" />
          </mxGeometry>
        </mxCell>
        <mxCell id="zupbCZH1lNRX8spcNWEF-30" value="ACK" style="edgeLabel;html=1;align=center;verticalAlign=middle;resizable=0;points=[];fontFamily=Comic Sans MS;fontColor=#000000;" parent="zupbCZH1lNRX8spcNWEF-29" vertex="1" connectable="0">
          <mxGeometry x="0.0003" y="1" relative="1" as="geometry">
            <mxPoint as="offset" />
          </mxGeometry>
        </mxCell>
        <mxCell id="zupbCZH1lNRX8spcNWEF-31" value="" style="edgeStyle=none;orthogonalLoop=1;jettySize=auto;html=1;rounded=0;sketch=1;curveFitting=1;jiggle=2;fontColor=#000000;" parent="1" edge="1">
          <mxGeometry width="100" relative="1" as="geometry">
            <mxPoint x="2077.88" y="2090" as="sourcePoint" />
            <mxPoint x="1957.88" y="2110" as="targetPoint" />
            <Array as="points" />
          </mxGeometry>
        </mxCell>
        <mxCell id="zupbCZH1lNRX8spcNWEF-32" value="FIN" style="edgeLabel;html=1;align=center;verticalAlign=middle;resizable=0;points=[];fontFamily=Comic Sans MS;fontColor=#000000;" parent="zupbCZH1lNRX8spcNWEF-31" vertex="1" connectable="0">
          <mxGeometry x="0.0003" y="1" relative="1" as="geometry">
            <mxPoint as="offset" />
          </mxGeometry>
        </mxCell>
        <mxCell id="zupbCZH1lNRX8spcNWEF-33" value="" style="edgeStyle=none;orthogonalLoop=1;jettySize=auto;html=1;rounded=0;sketch=1;curveFitting=1;jiggle=2;fontColor=#000000;" parent="1" edge="1">
          <mxGeometry width="100" relative="1" as="geometry">
            <mxPoint x="1959.13" y="2110" as="sourcePoint" />
            <mxPoint x="2079.13" y="2130" as="targetPoint" />
            <Array as="points" />
          </mxGeometry>
        </mxCell>
        <mxCell id="zupbCZH1lNRX8spcNWEF-34" value="ACK" style="edgeLabel;html=1;align=center;verticalAlign=middle;resizable=0;points=[];fontFamily=Comic Sans MS;fontColor=#000000;" parent="zupbCZH1lNRX8spcNWEF-33" vertex="1" connectable="0">
          <mxGeometry x="0.0003" y="1" relative="1" as="geometry">
            <mxPoint as="offset" />
          </mxGeometry>
        </mxCell>
        <mxCell id="zupbCZH1lNRX8spcNWEF-35" value="&lt;font face=&quot;Comic Sans MS&quot;&gt;tcp_client&lt;/font&gt;" style="text;html=1;align=center;verticalAlign=middle;resizable=0;points=[];autosize=1;strokeColor=none;fillColor=none;fontColor=#000000;" parent="1" vertex="1">
          <mxGeometry x="1920" y="1770" width="80" height="30" as="geometry" />
        </mxCell>
        <mxCell id="zupbCZH1lNRX8spcNWEF-37" value="&lt;font face=&quot;Comic Sans MS&quot;&gt;1. listenFd = socket(); &lt;br&gt;获取文件描述符&lt;/font&gt;" style="text;html=1;align=left;verticalAlign=middle;resizable=0;points=[];autosize=1;strokeColor=none;fillColor=none;fontColor=#000000;" parent="1" vertex="1">
          <mxGeometry x="2115.25" y="1640" width="140" height="40" as="geometry" />
        </mxCell>
        <mxCell id="zupbCZH1lNRX8spcNWEF-38" value="&lt;font face=&quot;Comic Sans MS&quot;&gt;2. bind(listenFd, 服务器地址和端口); &lt;br&gt;获取文件描述符&lt;/font&gt;" style="text;html=1;align=left;verticalAlign=middle;resizable=0;points=[];autosize=1;strokeColor=none;fillColor=none;fontColor=#000000;" parent="1" vertex="1">
          <mxGeometry x="2115.25" y="1680" width="220" height="40" as="geometry" />
        </mxCell>
        <mxCell id="zupbCZH1lNRX8spcNWEF-39" value="&lt;font face=&quot;Comic Sans MS&quot;&gt;3. listen(listenFd, 连接队列长度); &lt;br&gt;设置文件描述符为监听描述符&lt;/font&gt;" style="text;html=1;align=left;verticalAlign=middle;resizable=0;points=[];autosize=1;strokeColor=none;fillColor=none;fontColor=#000000;" parent="1" vertex="1">
          <mxGeometry x="2115.25" y="1720" width="210" height="40" as="geometry" />
        </mxCell>
        <mxCell id="zupbCZH1lNRX8spcNWEF-40" value="&lt;font face=&quot;Comic Sans MS&quot;&gt;4. connFd = accept(listenFd, 客户端地址端口); &lt;br&gt;阻塞等待客户端的链接请求才能得到连接套接字, 注意这个 accept() 不参与三次握手&lt;/font&gt;" style="text;html=1;align=left;verticalAlign=middle;resizable=0;points=[];autosize=1;strokeColor=none;fillColor=none;fontColor=#000000;" parent="1" vertex="1">
          <mxGeometry x="2115" y="1760" width="470" height="40" as="geometry" />
        </mxCell>
        <mxCell id="zupbCZH1lNRX8spcNWEF-41" value="&lt;font face=&quot;Comic Sans MS&quot;&gt;5. fd = socket();&lt;br&gt;获取文件描述符&lt;br&gt;&lt;/font&gt;" style="text;html=1;align=left;verticalAlign=middle;resizable=0;points=[];autosize=1;strokeColor=none;fillColor=none;fontColor=#000000;" parent="1" vertex="1">
          <mxGeometry x="1800" y="1740" width="110" height="40" as="geometry" />
        </mxCell>
        <mxCell id="zupbCZH1lNRX8spcNWEF-42" value="&lt;font face=&quot;Comic Sans MS&quot;&gt;6. connect(fd, 服务器地址和端口);&lt;br&gt;发起链接请求, 阻塞等待服务器响应, 发生三次握手&lt;br&gt;&lt;/font&gt;" style="text;html=1;align=left;verticalAlign=middle;resizable=0;points=[];autosize=1;strokeColor=none;fillColor=none;fontColor=#000000;" parent="1" vertex="1">
          <mxGeometry x="1670" y="1790" width="290" height="40" as="geometry" />
        </mxCell>
        <mxCell id="zupbCZH1lNRX8spcNWEF-43" value="&lt;font face=&quot;Comic Sans MS&quot;&gt;7. 三次握手结束后返回新分配的 connFd, 方便服务端进行读写操作&lt;/font&gt;" style="text;html=1;align=left;verticalAlign=middle;resizable=0;points=[];autosize=1;strokeColor=none;fillColor=none;fontColor=#000000;" parent="1" vertex="1">
          <mxGeometry x="2093" y="1855" width="380" height="30" as="geometry" />
        </mxCell>
        <mxCell id="zupbCZH1lNRX8spcNWEF-44" value="&lt;font face=&quot;Comic Sans MS&quot;&gt;8. while(...) {&lt;br&gt;&lt;span style=&quot;white-space: pre;&quot;&gt;&#x9;&lt;/span&gt;write(fd, buffer, size); //发送数据请求&lt;br&gt;&lt;span style=&quot;white-space: pre;&quot;&gt;&#x9;&lt;/span&gt;read(fd, buffer, size); //阻塞等待数据响应&lt;br&gt;}&lt;br&gt;&lt;/font&gt;" style="text;html=1;align=left;verticalAlign=middle;resizable=0;points=[];autosize=1;strokeColor=none;fillColor=none;fontColor=#000000;" parent="1" vertex="1">
          <mxGeometry x="1690" y="1920" width="290" height="80" as="geometry" />
        </mxCell>
        <mxCell id="zupbCZH1lNRX8spcNWEF-45" value="&lt;font face=&quot;Comic Sans MS&quot;&gt;9. while(...) {&lt;br&gt;&lt;span style=&quot;white-space: pre;&quot;&gt;&#x9;&lt;/span&gt;write(connFd, buffer, size); //发送数据请求&lt;br&gt;&lt;span style=&quot;white-space: pre;&quot;&gt;&#x9;&lt;/span&gt;read(connFd, buffer, size); //阻塞等待数据响应&lt;br&gt;}&lt;br&gt;&lt;/font&gt;" style="text;html=1;align=left;verticalAlign=middle;resizable=0;points=[];autosize=1;strokeColor=none;fillColor=none;fontColor=#000000;" parent="1" vertex="1">
          <mxGeometry x="2103" y="1920" width="320" height="80" as="geometry" />
        </mxCell>
        <mxCell id="zupbCZH1lNRX8spcNWEF-46" value="&lt;font face=&quot;Comic Sans MS&quot;&gt;10. close(fd); &lt;br&gt;请求关闭链接, 发生四次挥手&lt;br&gt;&lt;/font&gt;" style="text;html=1;align=left;verticalAlign=middle;resizable=0;points=[];autosize=1;strokeColor=none;fillColor=none;fontColor=#000000;" parent="1" vertex="1">
          <mxGeometry x="1810" y="2010" width="170" height="40" as="geometry" />
        </mxCell>
        <mxCell id="zupbCZH1lNRX8spcNWEF-47" value="&lt;font face=&quot;Comic Sans MS&quot;&gt;11. 由于对端关闭 read() 返回 0&lt;br&gt;&lt;/font&gt;" style="text;html=1;align=left;verticalAlign=middle;resizable=0;points=[];autosize=1;strokeColor=none;fillColor=none;fontColor=#000000;" parent="1" vertex="1">
          <mxGeometry x="2100.25" y="2035" width="190" height="30" as="geometry" />
        </mxCell>
        <mxCell id="zupbCZH1lNRX8spcNWEF-50" value="12. close(connFd); 关闭链接&lt;font face=&quot;Comic Sans MS&quot;&gt;&lt;br&gt;&lt;/font&gt;" style="text;html=1;align=left;verticalAlign=middle;resizable=0;points=[];autosize=1;strokeColor=none;fillColor=none;fontColor=#000000;" parent="1" vertex="1">
          <mxGeometry x="2098.25" y="2076" width="170" height="30" as="geometry" />
        </mxCell>
        <mxCell id="hZ5El680qPTriYK3inbo-1" value="" style="endArrow=none;html=1;rounded=0;sketch=1;curveFitting=1;jiggle=2;fontColor=#000000;" parent="1" edge="1">
          <mxGeometry width="50" height="50" relative="1" as="geometry">
            <mxPoint x="1799.75" y="2999" as="sourcePoint" />
            <mxPoint x="1800.75" y="2656" as="targetPoint" />
          </mxGeometry>
        </mxCell>
        <mxCell id="hZ5El680qPTriYK3inbo-2" value="" style="endArrow=none;html=1;rounded=0;sketch=1;curveFitting=1;jiggle=2;fontColor=#000000;" parent="1" edge="1">
          <mxGeometry width="50" height="50" relative="1" as="geometry">
            <mxPoint x="1920.75" y="2999" as="sourcePoint" />
            <mxPoint x="1920.75" y="2616" as="targetPoint" />
          </mxGeometry>
        </mxCell>
        <mxCell id="hZ5El680qPTriYK3inbo-27" value="" style="endArrow=classic;html=1;rounded=0;sketch=1;curveFitting=1;jiggle=2;" parent="1" edge="1">
          <mxGeometry width="50" height="50" relative="1" as="geometry">
            <mxPoint x="1800" y="2680" as="sourcePoint" />
            <mxPoint x="1920" y="2730" as="targetPoint" />
          </mxGeometry>
        </mxCell>
        <mxCell id="wn1u9aZSYSZ8bPjQJcBS-1" value="正文数据(如果有的话)" style="whiteSpace=wrap;html=1;sketch=1;curveFitting=1;jiggle=2;fontFamily=Comic Sans MS;" vertex="1" parent="1">
          <mxGeometry x="1520" y="3740" width="180" height="70" as="geometry" />
        </mxCell>
        <mxCell id="wn1u9aZSYSZ8bPjQJcBS-3" value="16位源端口号(uint16_t)" style="whiteSpace=wrap;html=1;sketch=1;curveFitting=1;jiggle=2;fontFamily=Comic Sans MS;" vertex="1" parent="1">
          <mxGeometry x="1520" y="3660" width="90" height="40" as="geometry" />
        </mxCell>
        <mxCell id="wn1u9aZSYSZ8bPjQJcBS-4" value="16位目的端口号&lt;br&gt;(uint16_t)" style="whiteSpace=wrap;html=1;sketch=1;curveFitting=1;jiggle=2;fontFamily=Comic Sans MS;" vertex="1" parent="1">
          <mxGeometry x="1610" y="3660" width="90" height="40" as="geometry" />
        </mxCell>
        <mxCell id="wn1u9aZSYSZ8bPjQJcBS-5" value="16位UDP长度" style="whiteSpace=wrap;html=1;sketch=1;curveFitting=1;jiggle=2;fontFamily=Comic Sans MS;" vertex="1" parent="1">
          <mxGeometry x="1520" y="3700" width="90" height="40" as="geometry" />
        </mxCell>
        <mxCell id="wn1u9aZSYSZ8bPjQJcBS-6" value="16位UDP校验和" style="whiteSpace=wrap;html=1;sketch=1;curveFitting=1;jiggle=2;fontFamily=Comic Sans MS;" vertex="1" parent="1">
          <mxGeometry x="1610" y="3700" width="90" height="40" as="geometry" />
        </mxCell>
        <mxCell id="wn1u9aZSYSZ8bPjQJcBS-7" value="0" style="text;html=1;align=center;verticalAlign=middle;resizable=0;points=[];autosize=1;strokeColor=none;fillColor=none;fontFamily=Comic Sans MS;" vertex="1" parent="1">
          <mxGeometry x="1504.5" y="3636" width="30" height="30" as="geometry" />
        </mxCell>
        <mxCell id="wn1u9aZSYSZ8bPjQJcBS-8" value="16" style="text;html=1;align=center;verticalAlign=middle;resizable=0;points=[];autosize=1;strokeColor=none;fillColor=none;fontFamily=Comic Sans MS;" vertex="1" parent="1">
          <mxGeometry x="1590" y="3636" width="40" height="30" as="geometry" />
        </mxCell>
        <mxCell id="wn1u9aZSYSZ8bPjQJcBS-9" value="31" style="text;html=1;align=center;verticalAlign=middle;resizable=0;points=[];autosize=1;strokeColor=none;fillColor=none;fontFamily=Comic Sans MS;" vertex="1" parent="1">
          <mxGeometry x="1680" y="3636" width="40" height="30" as="geometry" />
        </mxCell>
        <mxCell id="wn1u9aZSYSZ8bPjQJcBS-11" value="" style="endArrow=none;html=1;rounded=0;fontFamily=Comic Sans MS;sketch=1;curveFitting=1;jiggle=2;" edge="1" parent="1">
          <mxGeometry width="50" height="50" relative="1" as="geometry">
            <mxPoint x="1700" y="3660" as="sourcePoint" />
            <mxPoint x="1719" y="3660" as="targetPoint" />
          </mxGeometry>
        </mxCell>
        <mxCell id="wn1u9aZSYSZ8bPjQJcBS-12" value="" style="endArrow=none;html=1;rounded=0;fontFamily=Comic Sans MS;sketch=1;curveFitting=1;jiggle=2;" edge="1" parent="1">
          <mxGeometry width="50" height="50" relative="1" as="geometry">
            <mxPoint x="1700" y="3740" as="sourcePoint" />
            <mxPoint x="1719" y="3740" as="targetPoint" />
          </mxGeometry>
        </mxCell>
        <mxCell id="wn1u9aZSYSZ8bPjQJcBS-13" value="" style="endArrow=classic;startArrow=classic;html=1;rounded=0;fontFamily=Comic Sans MS;sketch=1;curveFitting=1;jiggle=2;" edge="1" parent="1">
          <mxGeometry width="50" height="50" relative="1" as="geometry">
            <mxPoint x="1710" y="3740" as="sourcePoint" />
            <mxPoint x="1710" y="3660" as="targetPoint" />
          </mxGeometry>
        </mxCell>
        <mxCell id="wn1u9aZSYSZ8bPjQJcBS-14" value="头部" style="edgeLabel;html=1;align=center;verticalAlign=middle;resizable=0;points=[];fontFamily=Comic Sans MS;" vertex="1" connectable="0" parent="wn1u9aZSYSZ8bPjQJcBS-13">
          <mxGeometry x="0.0067" y="-1" relative="1" as="geometry">
            <mxPoint x="4" y="1" as="offset" />
          </mxGeometry>
        </mxCell>
        <mxCell id="wn1u9aZSYSZ8bPjQJcBS-17" value="" style="endArrow=none;html=1;rounded=0;fontFamily=Comic Sans MS;sketch=1;curveFitting=1;jiggle=2;" edge="1" parent="1">
          <mxGeometry width="50" height="50" relative="1" as="geometry">
            <mxPoint x="1701" y="3810" as="sourcePoint" />
            <mxPoint x="1720" y="3810" as="targetPoint" />
          </mxGeometry>
        </mxCell>
        <mxCell id="wn1u9aZSYSZ8bPjQJcBS-18" value="" style="endArrow=classic;startArrow=classic;html=1;rounded=0;fontFamily=Comic Sans MS;sketch=1;curveFitting=1;jiggle=2;" edge="1" parent="1">
          <mxGeometry width="50" height="50" relative="1" as="geometry">
            <mxPoint x="1711" y="3810" as="sourcePoint" />
            <mxPoint x="1711" y="3740" as="targetPoint" />
          </mxGeometry>
        </mxCell>
        <mxCell id="wn1u9aZSYSZ8bPjQJcBS-19" value="正文" style="edgeLabel;html=1;align=center;verticalAlign=middle;resizable=0;points=[];fontFamily=Comic Sans MS;" vertex="1" connectable="0" parent="wn1u9aZSYSZ8bPjQJcBS-18">
          <mxGeometry x="0.0067" y="-1" relative="1" as="geometry">
            <mxPoint x="4" as="offset" />
          </mxGeometry>
        </mxCell>
        <mxCell id="wn1u9aZSYSZ8bPjQJcBS-22" value="" style="endArrow=none;html=1;rounded=0;fontFamily=Comic Sans MS;sketch=1;curveFitting=1;jiggle=2;" edge="1" parent="1">
          <mxGeometry width="50" height="50" relative="1" as="geometry">
            <mxPoint x="1501" y="3660" as="sourcePoint" />
            <mxPoint x="1520" y="3660" as="targetPoint" />
          </mxGeometry>
        </mxCell>
        <mxCell id="wn1u9aZSYSZ8bPjQJcBS-23" value="" style="endArrow=none;html=1;rounded=0;fontFamily=Comic Sans MS;sketch=1;curveFitting=1;jiggle=2;" edge="1" parent="1">
          <mxGeometry width="50" height="50" relative="1" as="geometry">
            <mxPoint x="1501" y="3740" as="sourcePoint" />
            <mxPoint x="1520" y="3740" as="targetPoint" />
          </mxGeometry>
        </mxCell>
        <mxCell id="wn1u9aZSYSZ8bPjQJcBS-24" value="" style="endArrow=classic;startArrow=classic;html=1;rounded=0;fontFamily=Comic Sans MS;sketch=1;curveFitting=1;jiggle=2;" edge="1" parent="1">
          <mxGeometry width="50" height="50" relative="1" as="geometry">
            <mxPoint x="1510" y="3740" as="sourcePoint" />
            <mxPoint x="1511" y="3660" as="targetPoint" />
          </mxGeometry>
        </mxCell>
        <mxCell id="wn1u9aZSYSZ8bPjQJcBS-25" value="8byte&lt;span style=&quot;&quot;&gt;&amp;nbsp;&lt;/span&gt;" style="edgeLabel;html=1;align=center;verticalAlign=middle;resizable=0;points=[];fontFamily=Comic Sans MS;" vertex="1" connectable="0" parent="wn1u9aZSYSZ8bPjQJcBS-24">
          <mxGeometry x="0.0067" y="-1" relative="1" as="geometry">
            <mxPoint x="-12" as="offset" />
          </mxGeometry>
        </mxCell>
        <mxCell id="wn1u9aZSYSZ8bPjQJcBS-26" value="" style="whiteSpace=wrap;html=1;sketch=1;curveFitting=1;jiggle=2;fontFamily=Comic Sans MS;" vertex="1" parent="1">
          <mxGeometry x="1390" y="4011" width="454.75" height="289" as="geometry" />
        </mxCell>
        <mxCell id="wn1u9aZSYSZ8bPjQJcBS-27" value="32位选项" style="whiteSpace=wrap;html=1;sketch=1;curveFitting=1;jiggle=2;fontFamily=Comic Sans MS;" vertex="1" parent="1">
          <mxGeometry x="1480" y="4200" width="320" height="40" as="geometry" />
        </mxCell>
        <mxCell id="wn1u9aZSYSZ8bPjQJcBS-28" value="16位源端口号(uint16_t)" style="whiteSpace=wrap;html=1;sketch=1;curveFitting=1;jiggle=2;fontFamily=Comic Sans MS;" vertex="1" parent="1">
          <mxGeometry x="1480" y="4042" width="160" height="40" as="geometry" />
        </mxCell>
        <mxCell id="wn1u9aZSYSZ8bPjQJcBS-29" value="16位目的端口号(uint16_t)" style="whiteSpace=wrap;html=1;sketch=1;curveFitting=1;jiggle=2;fontFamily=Comic Sans MS;" vertex="1" parent="1">
          <mxGeometry x="1640" y="4042" width="160" height="40" as="geometry" />
        </mxCell>
        <mxCell id="wn1u9aZSYSZ8bPjQJcBS-31" value="32位序号" style="whiteSpace=wrap;html=1;sketch=1;curveFitting=1;jiggle=2;fontFamily=Comic Sans MS;" vertex="1" parent="1">
          <mxGeometry x="1480" y="4082" width="320" height="38" as="geometry" />
        </mxCell>
        <mxCell id="wn1u9aZSYSZ8bPjQJcBS-32" value="0" style="text;html=1;align=center;verticalAlign=middle;resizable=0;points=[];autosize=1;strokeColor=none;fillColor=none;fontFamily=Comic Sans MS;" vertex="1" parent="1">
          <mxGeometry x="1465" y="4011" width="30" height="30" as="geometry" />
        </mxCell>
        <mxCell id="wn1u9aZSYSZ8bPjQJcBS-33" value="16" style="text;html=1;align=center;verticalAlign=middle;resizable=0;points=[];autosize=1;strokeColor=none;fillColor=none;fontFamily=Comic Sans MS;" vertex="1" parent="1">
          <mxGeometry x="1620" y="4012" width="40" height="30" as="geometry" />
        </mxCell>
        <mxCell id="wn1u9aZSYSZ8bPjQJcBS-34" value="31" style="text;html=1;align=center;verticalAlign=middle;resizable=0;points=[];autosize=1;strokeColor=none;fillColor=none;fontFamily=Comic Sans MS;" vertex="1" parent="1">
          <mxGeometry x="1780" y="4011" width="40" height="30" as="geometry" />
        </mxCell>
        <mxCell id="wn1u9aZSYSZ8bPjQJcBS-35" value="" style="endArrow=none;html=1;rounded=0;fontFamily=Comic Sans MS;sketch=1;curveFitting=1;jiggle=2;" edge="1" parent="1">
          <mxGeometry width="50" height="50" relative="1" as="geometry">
            <mxPoint x="1800" y="4042" as="sourcePoint" />
            <mxPoint x="1819" y="4042" as="targetPoint" />
          </mxGeometry>
        </mxCell>
        <mxCell id="wn1u9aZSYSZ8bPjQJcBS-36" value="" style="endArrow=none;html=1;rounded=0;fontFamily=Comic Sans MS;sketch=1;curveFitting=1;jiggle=2;" edge="1" parent="1">
          <mxGeometry width="50" height="50" relative="1" as="geometry">
            <mxPoint x="1800" y="4240" as="sourcePoint" />
            <mxPoint x="1819" y="4240" as="targetPoint" />
          </mxGeometry>
        </mxCell>
        <mxCell id="wn1u9aZSYSZ8bPjQJcBS-37" value="" style="endArrow=classic;startArrow=classic;html=1;rounded=0;fontFamily=Comic Sans MS;sketch=1;curveFitting=1;jiggle=2;" edge="1" parent="1">
          <mxGeometry width="50" height="50" relative="1" as="geometry">
            <mxPoint x="1810" y="4240" as="sourcePoint" />
            <mxPoint x="1810" y="4042" as="targetPoint" />
          </mxGeometry>
        </mxCell>
        <mxCell id="wn1u9aZSYSZ8bPjQJcBS-38" value="头部" style="edgeLabel;html=1;align=center;verticalAlign=middle;resizable=0;points=[];fontFamily=Comic Sans MS;" vertex="1" connectable="0" parent="wn1u9aZSYSZ8bPjQJcBS-37">
          <mxGeometry x="0.0067" y="-1" relative="1" as="geometry">
            <mxPoint x="4" y="1" as="offset" />
          </mxGeometry>
        </mxCell>
        <mxCell id="wn1u9aZSYSZ8bPjQJcBS-39" value="" style="endArrow=none;html=1;rounded=0;fontFamily=Comic Sans MS;sketch=1;curveFitting=1;jiggle=2;" edge="1" parent="1">
          <mxGeometry width="50" height="50" relative="1" as="geometry">
            <mxPoint x="1801" y="4280" as="sourcePoint" />
            <mxPoint x="1820" y="4280" as="targetPoint" />
          </mxGeometry>
        </mxCell>
        <mxCell id="wn1u9aZSYSZ8bPjQJcBS-40" value="" style="endArrow=classic;startArrow=classic;html=1;rounded=0;fontFamily=Comic Sans MS;sketch=1;curveFitting=1;jiggle=2;" edge="1" parent="1">
          <mxGeometry width="50" height="50" relative="1" as="geometry">
            <mxPoint x="1811" y="4280" as="sourcePoint" />
            <mxPoint x="1811" y="4240" as="targetPoint" />
          </mxGeometry>
        </mxCell>
        <mxCell id="wn1u9aZSYSZ8bPjQJcBS-41" value="正文" style="edgeLabel;html=1;align=center;verticalAlign=middle;resizable=0;points=[];fontFamily=Comic Sans MS;" vertex="1" connectable="0" parent="wn1u9aZSYSZ8bPjQJcBS-40">
          <mxGeometry x="0.0067" y="-1" relative="1" as="geometry">
            <mxPoint x="4" as="offset" />
          </mxGeometry>
        </mxCell>
        <mxCell id="wn1u9aZSYSZ8bPjQJcBS-42" value="" style="endArrow=none;html=1;rounded=0;fontFamily=Comic Sans MS;sketch=1;curveFitting=1;jiggle=2;" edge="1" parent="1">
          <mxGeometry width="50" height="50" relative="1" as="geometry">
            <mxPoint x="1460" y="4042" as="sourcePoint" />
            <mxPoint x="1479" y="4042" as="targetPoint" />
          </mxGeometry>
        </mxCell>
        <mxCell id="wn1u9aZSYSZ8bPjQJcBS-43" value="" style="endArrow=none;html=1;rounded=0;fontFamily=Comic Sans MS;sketch=1;curveFitting=1;jiggle=2;" edge="1" parent="1">
          <mxGeometry width="50" height="50" relative="1" as="geometry">
            <mxPoint x="1460" y="4202" as="sourcePoint" />
            <mxPoint x="1479" y="4202" as="targetPoint" />
          </mxGeometry>
        </mxCell>
        <mxCell id="wn1u9aZSYSZ8bPjQJcBS-44" value="" style="endArrow=classic;startArrow=classic;html=1;rounded=0;fontFamily=Comic Sans MS;sketch=1;curveFitting=1;jiggle=2;" edge="1" parent="1">
          <mxGeometry width="50" height="50" relative="1" as="geometry">
            <mxPoint x="1470" y="4200" as="sourcePoint" />
            <mxPoint x="1470" y="4042" as="targetPoint" />
          </mxGeometry>
        </mxCell>
        <mxCell id="wn1u9aZSYSZ8bPjQJcBS-45" value="标准报&lt;br&gt;文长度&lt;br&gt;20 byte" style="edgeLabel;html=1;align=center;verticalAlign=middle;resizable=0;points=[];fontFamily=Comic Sans MS;" vertex="1" connectable="0" parent="wn1u9aZSYSZ8bPjQJcBS-44">
          <mxGeometry x="0.0067" y="-1" relative="1" as="geometry">
            <mxPoint x="-16" y="-1" as="offset" />
          </mxGeometry>
        </mxCell>
        <mxCell id="wn1u9aZSYSZ8bPjQJcBS-46" value="32位确认序号" style="whiteSpace=wrap;html=1;sketch=1;curveFitting=1;jiggle=2;fontFamily=Comic Sans MS;" vertex="1" parent="1">
          <mxGeometry x="1480" y="4120" width="320" height="40" as="geometry" />
        </mxCell>
        <mxCell id="wn1u9aZSYSZ8bPjQJcBS-47" value="4位首部长度" style="whiteSpace=wrap;html=1;sketch=1;curveFitting=1;jiggle=2;fontFamily=Comic Sans MS;" vertex="1" parent="1">
          <mxGeometry x="1480" y="4160" width="40" height="40" as="geometry" />
        </mxCell>
        <mxCell id="wn1u9aZSYSZ8bPjQJcBS-48" value="6位保留字段" style="whiteSpace=wrap;html=1;sketch=1;curveFitting=1;jiggle=2;fontFamily=Comic Sans MS;" vertex="1" parent="1">
          <mxGeometry x="1520" y="4160" width="60" height="40" as="geometry" />
        </mxCell>
        <mxCell id="wn1u9aZSYSZ8bPjQJcBS-49" value="&lt;p style=&quot;line-height: 90%; font-size: 9px;&quot;&gt;&lt;font style=&quot;font-size: 9px;&quot;&gt;U&lt;br style=&quot;font-size: 9px;&quot;&gt;R&lt;br style=&quot;font-size: 9px;&quot;&gt;G&lt;/font&gt;&lt;/p&gt;" style="whiteSpace=wrap;html=1;sketch=1;curveFitting=1;jiggle=2;fontFamily=Comic Sans MS;spacing=2;fontSize=9;" vertex="1" parent="1">
          <mxGeometry x="1580" y="4160" width="10" height="40" as="geometry" />
        </mxCell>
        <mxCell id="wn1u9aZSYSZ8bPjQJcBS-50" value="&lt;p style=&quot;line-height: 90%; font-size: 9px;&quot;&gt;&lt;font style=&quot;font-size: 9px;&quot;&gt;A&lt;br style=&quot;font-size: 9px;&quot;&gt;C&lt;br style=&quot;font-size: 9px;&quot;&gt;K&lt;/font&gt;&lt;/p&gt;" style="whiteSpace=wrap;html=1;sketch=1;curveFitting=1;jiggle=2;fontFamily=Comic Sans MS;spacing=2;fontSize=9;" vertex="1" parent="1">
          <mxGeometry x="1590" y="4160" width="10" height="40" as="geometry" />
        </mxCell>
        <mxCell id="wn1u9aZSYSZ8bPjQJcBS-51" value="&lt;p style=&quot;line-height: 90%; font-size: 9px;&quot;&gt;&lt;font style=&quot;font-size: 9px;&quot;&gt;P&lt;br style=&quot;font-size: 9px;&quot;&gt;S&lt;br style=&quot;font-size: 9px;&quot;&gt;H&lt;/font&gt;&lt;/p&gt;" style="whiteSpace=wrap;html=1;sketch=1;curveFitting=1;jiggle=2;fontFamily=Comic Sans MS;spacing=2;fontSize=9;" vertex="1" parent="1">
          <mxGeometry x="1600" y="4160" width="10" height="40" as="geometry" />
        </mxCell>
        <mxCell id="wn1u9aZSYSZ8bPjQJcBS-52" value="&lt;p style=&quot;line-height: 90%; font-size: 9px;&quot;&gt;&lt;font style=&quot;font-size: 9px;&quot;&gt;R&lt;br style=&quot;font-size: 9px;&quot;&gt;S&lt;br style=&quot;font-size: 9px;&quot;&gt;T&lt;/font&gt;&lt;/p&gt;" style="whiteSpace=wrap;html=1;sketch=1;curveFitting=1;jiggle=2;fontFamily=Comic Sans MS;spacing=2;fontSize=9;" vertex="1" parent="1">
          <mxGeometry x="1610" y="4160" width="10" height="40" as="geometry" />
        </mxCell>
        <mxCell id="wn1u9aZSYSZ8bPjQJcBS-53" value="&lt;p style=&quot;line-height: 90%; font-size: 9px;&quot;&gt;&lt;font style=&quot;font-size: 9px;&quot;&gt;S&lt;br style=&quot;font-size: 9px;&quot;&gt;Y&lt;br style=&quot;font-size: 9px;&quot;&gt;N&lt;/font&gt;&lt;/p&gt;" style="whiteSpace=wrap;html=1;sketch=1;curveFitting=1;jiggle=2;fontFamily=Comic Sans MS;spacing=2;fontSize=9;" vertex="1" parent="1">
          <mxGeometry x="1620" y="4160" width="10" height="40" as="geometry" />
        </mxCell>
        <mxCell id="wn1u9aZSYSZ8bPjQJcBS-54" value="&lt;p style=&quot;line-height: 90%; font-size: 9px;&quot;&gt;&lt;font style=&quot;font-size: 9px;&quot;&gt;F&lt;br style=&quot;font-size: 9px;&quot;&gt;I&lt;br style=&quot;font-size: 9px;&quot;&gt;N&lt;/font&gt;&lt;/p&gt;" style="whiteSpace=wrap;html=1;sketch=1;curveFitting=1;jiggle=2;fontFamily=Comic Sans MS;spacing=2;fontSize=9;" vertex="1" parent="1">
          <mxGeometry x="1630" y="4160" width="10" height="40" as="geometry" />
        </mxCell>
        <mxCell id="wn1u9aZSYSZ8bPjQJcBS-55" value="16位窗口大小" style="whiteSpace=wrap;html=1;sketch=1;curveFitting=1;jiggle=2;fontFamily=Comic Sans MS;" vertex="1" parent="1">
          <mxGeometry x="1640" y="4160" width="160" height="40" as="geometry" />
        </mxCell>
        <mxCell id="wn1u9aZSYSZ8bPjQJcBS-56" value="正文数据(如果有的话)" style="whiteSpace=wrap;html=1;sketch=1;curveFitting=1;jiggle=2;fontFamily=Comic Sans MS;" vertex="1" parent="1">
          <mxGeometry x="1480" y="4240" width="320" height="40" as="geometry" />
        </mxCell>
      </root>
    </mxGraphModel>
  </diagram>
</mxfile>
